<?xml version="1.0" encoding="UTF-8" standalone="no"?>
<!DOCTYPE svg PUBLIC "-//W3C//DTD SVG 1.1//EN"
 "http://www.w3.org/Graphics/SVG/1.1/DTD/svg11.dtd">
<!-- Generated by graphviz version 2.42.4 (0)
 -->
<!-- Title: LegoModules Pages: 1 -->
<svg width="984pt" height="701pt"
 viewBox="0.00 0.00 983.62 701.00" xmlns="http://www.w3.org/2000/svg" xmlns:xlink="http://www.w3.org/1999/xlink">
<g id="graph0" class="graph" transform="scale(1 1) rotate(0) translate(4 697)">
<title>LegoModules</title>
<polygon fill="white" stroke="transparent" points="-4,4 -4,-697 979.62,-697 979.62,4 -4,4"/>
<g id="clust1" class="cluster">
<title>cluster_core</title>
<path fill="none" stroke="#1565c0" d="M411.62,-448C411.62,-448 695.62,-448 695.62,-448 701.62,-448 707.62,-454 707.62,-460 707.62,-460 707.62,-617 707.62,-617 707.62,-623 701.62,-629 695.62,-629 695.62,-629 411.62,-629 411.62,-629 405.62,-629 399.62,-623 399.62,-617 399.62,-617 399.62,-460 399.62,-460 399.62,-454 405.62,-448 411.62,-448"/>
<text text-anchor="middle" x="553.62" y="-455.8" font-family="Times,serif" font-size="14.00">Core Types</text>
</g>
<g id="clust2" class="cluster">
<title>cluster_token</title>
<path fill="none" stroke="#7b1fa2" d="M441.62,-348C441.62,-348 683.62,-348 683.62,-348 689.62,-348 695.62,-354 695.62,-360 695.62,-360 695.62,-428 695.62,-428 695.62,-434 689.62,-440 683.62,-440 683.62,-440 441.62,-440 441.62,-440 435.62,-440 429.62,-434 429.62,-428 429.62,-428 429.62,-360 429.62,-360 429.62,-354 435.62,-348 441.62,-348"/>
<text text-anchor="middle" x="562.62" y="-355.8" font-family="Times,serif" font-size="14.00">Tokenization</text>
</g>
<g id="clust3" class="cluster">
<title>cluster_grammar</title>
<path fill="none" stroke="#388e3c" d="M27.62,-182C27.62,-182 379.62,-182 379.62,-182 385.62,-182 391.62,-188 391.62,-194 391.62,-194 391.62,-520.5 391.62,-520.5 391.62,-526.5 385.62,-532.5 379.62,-532.5 379.62,-532.5 27.62,-532.5 27.62,-532.5 21.62,-532.5 15.62,-526.5 15.62,-520.5 15.62,-520.5 15.62,-194 15.62,-194 15.62,-188 21.62,-182 27.62,-182"/>
<text text-anchor="middle" x="203.62" y="-189.8" font-family="Times,serif" font-size="14.00">Grammar System</text>
</g>
<g id="clust4" class="cluster">
<title>cluster_eval</title>
<path fill="none" stroke="#f57c00" d="M187.62,-8C187.62,-8 687.62,-8 687.62,-8 693.62,-8 699.62,-14 699.62,-20 699.62,-20 699.62,-162 699.62,-162 699.62,-168 693.62,-174 687.62,-174 687.62,-174 187.62,-174 187.62,-174 181.62,-174 175.62,-168 175.62,-162 175.62,-162 175.62,-20 175.62,-20 175.62,-14 181.62,-8 187.62,-8"/>
<text text-anchor="middle" x="437.62" y="-15.8" font-family="Times,serif" font-size="14.00">Evaluation</text>
</g>
<g id="clust5" class="cluster">
<title>cluster_exe</title>
<path fill="none" stroke="#c62828" d="M719.62,-8C719.62,-8 955.62,-8 955.62,-8 961.62,-8 967.62,-14 967.62,-20 967.62,-20 967.62,-73 967.62,-73 967.62,-79 961.62,-85 955.62,-85 955.62,-85 719.62,-85 719.62,-85 713.62,-85 707.62,-79 707.62,-73 707.62,-73 707.62,-20 707.62,-20 707.62,-14 713.62,-8 719.62,-8"/>
<text text-anchor="middle" x="837.62" y="-15.8" font-family="Times,serif" font-size="14.00">Executables</text>
</g>
<!-- DataMap -->
<g id="node1" class="node">
<title>DataMap</title>
<ellipse fill="none" stroke="#999999" stroke-dasharray="5,2" cx="620.62" cy="-675" rx="53.89" ry="18"/>
<text text-anchor="middle" x="620.62" y="-671.3" font-family="Helvetica,sans-Serif" font-size="14.00">Data.Map</text>
</g>
<!-- DataSet -->
<g id="node2" class="node">
<title>DataSet</title>
<ellipse fill="none" stroke="#999999" stroke-dasharray="5,2" cx="764.62" cy="-505.5" rx="49.29" ry="18"/>
<text text-anchor="middle" x="764.62" y="-501.8" font-family="Helvetica,sans-Serif" font-size="14.00">Data.Set</text>
</g>
<!-- Internal -->
<g id="node3" class="node">
<title>Internal</title>
<path fill="#e3f2fd" stroke="#999999" d="M687.62,-621C687.62,-621 553.62,-621 553.62,-621 547.62,-621 541.62,-615 541.62,-609 541.62,-609 541.62,-580 541.62,-580 541.62,-574 547.62,-568 553.62,-568 553.62,-568 687.62,-568 687.62,-568 693.62,-568 699.62,-574 699.62,-580 699.62,-580 699.62,-609 699.62,-609 699.62,-615 693.62,-621 687.62,-621"/>
<text text-anchor="middle" x="620.62" y="-605.8" font-family="Helvetica,sans-Serif" font-size="14.00">Lego.Internal</text>
<text text-anchor="middle" x="620.62" y="-590.8" font-family="Helvetica,sans-Serif" font-size="14.00">Fix, ExprF, cata, ana</text>
<text text-anchor="middle" x="620.62" y="-575.8" font-family="Helvetica,sans-Serif" font-size="14.00">Initial Algebra</text>
</g>
<!-- Internal&#45;&gt;DataMap -->
<g id="edge1" class="edge">
<title>Internal&#45;&gt;DataMap</title>
<path fill="none" stroke="#666666" stroke-dasharray="5,2" d="M620.62,-621.2C620.62,-629.29 620.62,-638.24 620.62,-646.45"/>
<polygon fill="#666666" stroke="#666666" points="617.12,-646.67 620.62,-656.67 624.12,-646.67 617.12,-646.67"/>
</g>
<!-- Error -->
<g id="node4" class="node">
<title>Error</title>
<path fill="#e3f2fd" stroke="#999999" d="M511.62,-613.5C511.62,-613.5 419.62,-613.5 419.62,-613.5 413.62,-613.5 407.62,-607.5 407.62,-601.5 407.62,-601.5 407.62,-587.5 407.62,-587.5 407.62,-581.5 413.62,-575.5 419.62,-575.5 419.62,-575.5 511.62,-575.5 511.62,-575.5 517.62,-575.5 523.62,-581.5 523.62,-587.5 523.62,-587.5 523.62,-601.5 523.62,-601.5 523.62,-607.5 517.62,-613.5 511.62,-613.5"/>
<text text-anchor="middle" x="465.62" y="-598.3" font-family="Helvetica,sans-Serif" font-size="14.00">Lego.Error</text>
<text text-anchor="middle" x="465.62" y="-583.3" font-family="Helvetica,sans-Serif" font-size="14.00">Error handling</text>
</g>
<!-- Lego -->
<g id="node5" class="node">
<title>Lego</title>
<path fill="#e3f2fd" stroke="#999999" d="M553.12,-532C553.12,-532 420.12,-532 420.12,-532 414.12,-532 408.12,-526 408.12,-520 408.12,-520 408.12,-491 408.12,-491 408.12,-485 414.12,-479 420.12,-479 420.12,-479 553.12,-479 553.12,-479 559.12,-479 565.12,-485 565.12,-491 565.12,-491 565.12,-520 565.12,-520 565.12,-526 559.12,-532 553.12,-532"/>
<text text-anchor="middle" x="486.62" y="-516.8" font-family="Helvetica,sans-Serif" font-size="14.00">Lego</text>
<text text-anchor="middle" x="486.62" y="-501.8" font-family="Helvetica,sans-Serif" font-size="14.00">Term, GrammarExpr</text>
<text text-anchor="middle" x="486.62" y="-486.8" font-family="Helvetica,sans-Serif" font-size="14.00">5 Pieces + 3 Ops</text>
</g>
<!-- Lego&#45;&gt;Internal -->
<g id="edge2" class="edge">
<title>Lego&#45;&gt;Internal</title>
<path fill="none" stroke="#666666" d="M526.1,-532.13C540.56,-541.52 557.08,-552.25 572.23,-562.08"/>
<polygon fill="#666666" stroke="#666666" points="570.67,-565.24 580.96,-567.75 574.48,-559.37 570.67,-565.24"/>
</g>
<!-- Lego&#45;&gt;Error -->
<g id="edge3" class="edge">
<title>Lego&#45;&gt;Error</title>
<path fill="none" stroke="#666666" d="M480.44,-532.13C477.89,-542.69 474.93,-554.95 472.33,-565.72"/>
<polygon fill="#666666" stroke="#666666" points="468.91,-564.95 469.97,-575.49 475.72,-566.59 468.91,-564.95"/>
</g>
<!-- Builtins -->
<g id="node13" class="node">
<title>Builtins</title>
<path fill="#fff3e0" stroke="#999999" d="M679.62,-77C679.62,-77 531.62,-77 531.62,-77 525.62,-77 519.62,-71 519.62,-65 519.62,-65 519.62,-51 519.62,-51 519.62,-45 525.62,-39 531.62,-39 531.62,-39 679.62,-39 679.62,-39 685.62,-39 691.62,-45 691.62,-51 691.62,-51 691.62,-65 691.62,-65 691.62,-71 685.62,-77 679.62,-77"/>
<text text-anchor="middle" x="605.62" y="-61.8" font-family="Helvetica,sans-Serif" font-size="14.00">Lego.Builtins</text>
<text text-anchor="middle" x="605.62" y="-46.8" font-family="Helvetica,sans-Serif" font-size="14.00">substTerm, builtinStep</text>
</g>
<!-- Lego&#45;&gt;Builtins -->
<g id="edge4" class="edge">
<title>Lego&#45;&gt;Builtins</title>
<path fill="none" stroke="#666666" d="M565.16,-485.05C631.57,-468.29 716.88,-445.89 722.62,-440 762.75,-398.88 753.62,-371.95 753.62,-314.5 753.62,-231 753.62,-231 753.62,-231 753.62,-164.89 690.03,-111.54 646.21,-82.64"/>
<polygon fill="#666666" stroke="#666666" points="648.04,-79.65 637.74,-77.18 644.25,-85.54 648.04,-79.65"/>
</g>
<!-- Token -->
<g id="node6" class="node">
<title>Token</title>
<path fill="#f3e5f5" stroke="#999999" d="M525.62,-432C525.62,-432 449.62,-432 449.62,-432 443.62,-432 437.62,-426 437.62,-420 437.62,-420 437.62,-391 437.62,-391 437.62,-385 443.62,-379 449.62,-379 449.62,-379 525.62,-379 525.62,-379 531.62,-379 537.62,-385 537.62,-391 537.62,-391 537.62,-420 537.62,-420 537.62,-426 531.62,-432 525.62,-432"/>
<text text-anchor="middle" x="487.62" y="-416.8" font-family="Helvetica,sans-Serif" font-size="14.00">Lego.Token</text>
<text text-anchor="middle" x="487.62" y="-401.8" font-family="Helvetica,sans-Serif" font-size="14.00">Free Monoid</text>
<text text-anchor="middle" x="487.62" y="-386.8" font-family="Helvetica,sans-Serif" font-size="14.00">tokenize</text>
</g>
<!-- Token&#45;&gt;DataSet -->
<g id="edge5" class="edge">
<title>Token&#45;&gt;DataSet</title>
<path fill="none" stroke="#666666" stroke-dasharray="5,2" d="M527.51,-432.04C534.02,-435.24 540.86,-438.06 547.62,-440 582.7,-450.05 678.5,-432.69 711.62,-448 726.36,-454.81 738.98,-467.76 748.21,-479.55"/>
<polygon fill="#666666" stroke="#666666" points="745.55,-481.85 754.31,-487.82 751.19,-477.69 745.55,-481.85"/>
</g>
<!-- Vocabulary -->
<g id="node7" class="node">
<title>Vocabulary</title>
<path fill="#f3e5f5" stroke="#999999" d="M675.12,-424.5C675.12,-424.5 568.12,-424.5 568.12,-424.5 562.12,-424.5 556.12,-418.5 556.12,-412.5 556.12,-412.5 556.12,-398.5 556.12,-398.5 556.12,-392.5 562.12,-386.5 568.12,-386.5 568.12,-386.5 675.12,-386.5 675.12,-386.5 681.12,-386.5 687.12,-392.5 687.12,-398.5 687.12,-398.5 687.12,-412.5 687.12,-412.5 687.12,-418.5 681.12,-424.5 675.12,-424.5"/>
<text text-anchor="middle" x="621.62" y="-409.3" font-family="Helvetica,sans-Serif" font-size="14.00">Lego.Vocabulary</text>
<text text-anchor="middle" x="621.62" y="-394.3" font-family="Helvetica,sans-Serif" font-size="14.00">Vocab Algebra</text>
</g>
<!-- Vocabulary&#45;&gt;DataSet -->
<g id="edge6" class="edge">
<title>Vocabulary&#45;&gt;DataSet</title>
<path fill="none" stroke="#666666" stroke-dasharray="5,2" d="M669.76,-424.58C683.88,-430.95 698.92,-438.84 711.62,-448 724.14,-457.03 736.09,-469.31 745.46,-480.12"/>
<polygon fill="#666666" stroke="#666666" points="742.98,-482.61 752.09,-488.02 748.34,-478.11 742.98,-482.61"/>
</g>
<!-- GrammarDef -->
<g id="node8" class="node">
<title>GrammarDef</title>
<path fill="#e8f5e9" stroke="#999999" d="M257.62,-424.5C257.62,-424.5 75.62,-424.5 75.62,-424.5 69.62,-424.5 63.62,-418.5 63.62,-412.5 63.62,-412.5 63.62,-398.5 63.62,-398.5 63.62,-392.5 69.62,-386.5 75.62,-386.5 75.62,-386.5 257.62,-386.5 257.62,-386.5 263.62,-386.5 269.62,-392.5 269.62,-398.5 269.62,-398.5 269.62,-412.5 269.62,-412.5 269.62,-418.5 263.62,-424.5 257.62,-424.5"/>
<text text-anchor="middle" x="166.62" y="-409.3" font-family="Helvetica,sans-Serif" font-size="14.00">Lego.GrammarDef</text>
<text text-anchor="middle" x="166.62" y="-394.3" font-family="Helvetica,sans-Serif" font-size="14.00">Loads from Grammar.sexpr</text>
</g>
<!-- GrammarDef&#45;&gt;Lego -->
<g id="edge8" class="edge">
<title>GrammarDef&#45;&gt;Lego</title>
<path fill="none" stroke="#666666" d="M220.83,-424.56C240.41,-430.4 262.82,-436.32 283.62,-440 332.77,-448.69 348.15,-432.61 395.62,-448 413.07,-453.66 430.59,-463.34 445.52,-473.11"/>
<polygon fill="#666666" stroke="#666666" points="443.76,-476.14 454,-478.84 447.68,-470.34 443.76,-476.14"/>
</g>
<!-- SExpr -->
<g id="node9" class="node">
<title>SExpr</title>
<path fill="#e8f5e9" stroke="#999999" d="M306.62,-524.5C306.62,-524.5 156.62,-524.5 156.62,-524.5 150.62,-524.5 144.62,-518.5 144.62,-512.5 144.62,-512.5 144.62,-498.5 144.62,-498.5 144.62,-492.5 150.62,-486.5 156.62,-486.5 156.62,-486.5 306.62,-486.5 306.62,-486.5 312.62,-486.5 318.62,-492.5 318.62,-498.5 318.62,-498.5 318.62,-512.5 318.62,-512.5 318.62,-518.5 312.62,-524.5 306.62,-524.5"/>
<text text-anchor="middle" x="231.62" y="-509.3" font-family="Helvetica,sans-Serif" font-size="14.00">Lego.SExpr</text>
<text text-anchor="middle" x="231.62" y="-494.3" font-family="Helvetica,sans-Serif" font-size="14.00">Portable S&#45;expr format</text>
</g>
<!-- GrammarDef&#45;&gt;SExpr -->
<g id="edge9" class="edge">
<title>GrammarDef&#45;&gt;SExpr</title>
<path fill="none" stroke="#666666" d="M178.85,-424.93C188.72,-439.81 202.74,-460.95 213.84,-477.69"/>
<polygon fill="#666666" stroke="#666666" points="211.23,-480.08 219.67,-486.48 217.06,-476.21 211.23,-480.08"/>
</g>
<!-- SExpr&#45;&gt;Lego -->
<g id="edge7" class="edge">
<title>SExpr&#45;&gt;Lego</title>
<path fill="none" stroke="#666666" d="M318.78,-505.5C345.14,-505.5 371.49,-505.5 397.85,-505.5"/>
<polygon fill="#666666" stroke="#666666" points="397.95,-509 407.95,-505.5 397.95,-502 397.95,-509"/>
</g>
<!-- GrammarInterp -->
<g id="node10" class="node">
<title>GrammarInterp</title>
<path fill="#e8f5e9" stroke="#999999" d="M274.62,-340C274.62,-340 136.62,-340 136.62,-340 130.62,-340 124.62,-334 124.62,-328 124.62,-328 124.62,-299 124.62,-299 124.62,-293 130.62,-287 136.62,-287 136.62,-287 274.62,-287 274.62,-287 280.62,-287 286.62,-293 286.62,-299 286.62,-299 286.62,-328 286.62,-328 286.62,-334 280.62,-340 274.62,-340"/>
<text text-anchor="middle" x="205.62" y="-324.8" font-family="Helvetica,sans-Serif" font-size="14.00">Lego.GrammarInterp</text>
<text text-anchor="middle" x="205.62" y="-309.8" font-family="Helvetica,sans-Serif" font-size="14.00">Bidirectional Parser</text>
<text text-anchor="middle" x="205.62" y="-294.8" font-family="Helvetica,sans-Serif" font-size="14.00">parse ↔ print</text>
</g>
<!-- GrammarInterp&#45;&gt;Lego -->
<g id="edge10" class="edge">
<title>GrammarInterp&#45;&gt;Lego</title>
<path fill="none" stroke="#666666" d="M269.26,-340.09C272.6,-342.52 275.75,-345.15 278.62,-348 310.65,-379.8 284.91,-413.75 321.62,-440 335.08,-449.62 379.98,-442.61 395.62,-448 412.82,-453.92 430.16,-463.57 445.02,-473.22"/>
<polygon fill="#666666" stroke="#666666" points="443.21,-476.22 453.47,-478.88 447.11,-470.41 443.21,-476.22"/>
</g>
<!-- GrammarInterp&#45;&gt;Token -->
<g id="edge11" class="edge">
<title>GrammarInterp&#45;&gt;Token</title>
<path fill="none" stroke="#666666" d="M286.88,-328.12C336.03,-336.48 390.25,-345.96 395.62,-348 412.47,-354.39 429.64,-363.95 444.51,-373.4"/>
<polygon fill="#666666" stroke="#666666" points="442.69,-376.39 452.98,-378.92 446.52,-370.53 442.69,-376.39"/>
</g>
<!-- GrammarInterp&#45;&gt;GrammarDef -->
<g id="edge12" class="edge">
<title>GrammarInterp&#45;&gt;GrammarDef</title>
<path fill="none" stroke="#666666" d="M194.55,-340.05C189.56,-351.58 183.64,-365.22 178.55,-376.98"/>
<polygon fill="#666666" stroke="#666666" points="175.27,-375.75 174.5,-386.32 181.69,-378.54 175.27,-375.75"/>
</g>
<!-- GrammarParser -->
<g id="node11" class="node">
<title>GrammarParser</title>
<path fill="#e8f5e9" stroke="#999999" d="M175.62,-251C175.62,-251 35.62,-251 35.62,-251 29.62,-251 23.62,-245 23.62,-239 23.62,-239 23.62,-225 23.62,-225 23.62,-219 29.62,-213 35.62,-213 35.62,-213 175.62,-213 175.62,-213 181.62,-213 187.62,-219 187.62,-225 187.62,-225 187.62,-239 187.62,-239 187.62,-245 181.62,-251 175.62,-251"/>
<text text-anchor="middle" x="105.62" y="-235.8" font-family="Helvetica,sans-Serif" font-size="14.00">Lego.GrammarParser</text>
<text text-anchor="middle" x="105.62" y="-220.8" font-family="Helvetica,sans-Serif" font-size="14.00">.lego file parser</text>
</g>
<!-- GrammarParser&#45;&gt;Lego -->
<g id="edge13" class="edge">
<title>GrammarParser&#45;&gt;Lego</title>
<path fill="none" stroke="#666666" d="M187.87,-250.36C230.82,-260.6 278.02,-274.04 295.62,-287 361.05,-335.15 339.27,-381.48 395.62,-440 407.3,-452.13 421.55,-463.46 435.27,-473.14"/>
<polygon fill="#666666" stroke="#666666" points="433.49,-476.16 443.71,-478.94 437.45,-470.39 433.49,-476.16"/>
</g>
<!-- GrammarParser&#45;&gt;Token -->
<g id="edge14" class="edge">
<title>GrammarParser&#45;&gt;Token</title>
<path fill="none" stroke="#666666" d="M187.73,-250.19C255.65,-264.56 342.16,-283.29 349.62,-287 391.86,-308.01 431.95,-344.7 457.93,-371.51"/>
<polygon fill="#666666" stroke="#666666" points="455.43,-373.97 464.87,-378.79 460.5,-369.13 455.43,-373.97"/>
</g>
<!-- GrammarParser&#45;&gt;GrammarDef -->
<g id="edge15" class="edge">
<title>GrammarParser&#45;&gt;GrammarDef</title>
<path fill="none" stroke="#666666" d="M104.26,-251.15C103.29,-273.03 103.83,-310.56 115.62,-340 121.31,-354.18 131.15,-367.78 140.68,-378.8"/>
<polygon fill="#666666" stroke="#666666" points="138.2,-381.28 147.51,-386.34 143.39,-376.58 138.2,-381.28"/>
</g>
<!-- GrammarParser&#45;&gt;GrammarInterp -->
<g id="edge16" class="edge">
<title>GrammarParser&#45;&gt;GrammarInterp</title>
<path fill="none" stroke="#666666" d="M128.32,-251.04C139.28,-259.76 152.78,-270.49 165.41,-280.53"/>
<polygon fill="#666666" stroke="#666666" points="163.54,-283.51 173.54,-287 167.89,-278.03 163.54,-283.51"/>
</g>
<!-- GrammarAnalysis -->
<g id="node12" class="node">
<title>GrammarAnalysis</title>
<path fill="#e8f5e9" stroke="#999999" d="M371.62,-251C371.62,-251 217.62,-251 217.62,-251 211.62,-251 205.62,-245 205.62,-239 205.62,-239 205.62,-225 205.62,-225 205.62,-219 211.62,-213 217.62,-213 217.62,-213 371.62,-213 371.62,-213 377.62,-213 383.62,-219 383.62,-225 383.62,-225 383.62,-239 383.62,-239 383.62,-245 377.62,-251 371.62,-251"/>
<text text-anchor="middle" x="294.62" y="-235.8" font-family="Helvetica,sans-Serif" font-size="14.00">Lego.GrammarAnalysis</text>
<text text-anchor="middle" x="294.62" y="-220.8" font-family="Helvetica,sans-Serif" font-size="14.00">collectLiterals</text>
</g>
<!-- GrammarAnalysis&#45;&gt;Lego -->
<g id="edge17" class="edge">
<title>GrammarAnalysis&#45;&gt;Lego</title>
<path fill="none" stroke="#666666" d="M383.73,-245.61C491.11,-262.85 661.87,-297.51 699.62,-348 724.11,-380.75 723.99,-407.16 699.62,-440 684.19,-460.81 626.47,-477.51 575.01,-488.71"/>
<polygon fill="#666666" stroke="#666666" points="574.2,-485.3 565.15,-490.8 575.66,-492.15 574.2,-485.3"/>
</g>
<!-- GrammarAnalysis&#45;&gt;Vocabulary -->
<g id="edge18" class="edge">
<title>GrammarAnalysis&#45;&gt;Vocabulary</title>
<path fill="none" stroke="#666666" d="M342.14,-251.07C393.98,-271.59 478.64,-307.54 546.62,-348 562.4,-357.39 578.81,-369.45 592.25,-380.02"/>
<polygon fill="#666666" stroke="#666666" points="590.2,-382.86 600.19,-386.37 594.56,-377.39 590.2,-382.86"/>
</g>
<!-- Builtins&#45;&gt;Internal -->
<g id="edge19" class="edge">
<title>Builtins&#45;&gt;Internal</title>
<path fill="none" stroke="#666666" d="M673.88,-77.04C743.58,-100.08 841.62,-147.35 841.62,-231 841.62,-231 841.62,-231 841.62,-406.5 841.62,-463.13 859.69,-489.68 822.62,-532.5 794.6,-564.86 750.08,-580.39 709.95,-587.71"/>
<polygon fill="#666666" stroke="#666666" points="709.15,-584.3 699.86,-589.4 710.3,-591.2 709.15,-584.3"/>
</g>
<!-- Eval -->
<g id="node14" class="node">
<title>Eval</title>
<path fill="#fff3e0" stroke="#999999" d="M466.12,-166C466.12,-166 357.12,-166 357.12,-166 351.12,-166 345.12,-160 345.12,-154 345.12,-154 345.12,-125 345.12,-125 345.12,-119 351.12,-113 357.12,-113 357.12,-113 466.12,-113 466.12,-113 472.12,-113 478.12,-119 478.12,-125 478.12,-125 478.12,-154 478.12,-154 478.12,-160 472.12,-166 466.12,-166"/>
<text text-anchor="middle" x="411.62" y="-150.8" font-family="Helvetica,sans-Serif" font-size="14.00">Lego.Eval</text>
<text text-anchor="middle" x="411.62" y="-135.8" font-family="Helvetica,sans-Serif" font-size="14.00">Language loader</text>
<text text-anchor="middle" x="411.62" y="-120.8" font-family="Helvetica,sans-Serif" font-size="14.00">normalize</text>
</g>
<!-- Eval&#45;&gt;Lego -->
<g id="edge20" class="edge">
<title>Eval&#45;&gt;Lego</title>
<path fill="none" stroke="#666666" d="M407.05,-166.26C398.77,-219.79 385.59,-345.87 425.62,-440 430.57,-451.64 438.62,-462.44 447.26,-471.75"/>
<polygon fill="#666666" stroke="#666666" points="444.77,-474.21 454.28,-478.89 449.76,-469.3 444.77,-474.21"/>
</g>
<!-- Eval&#45;&gt;Token -->
<g id="edge24" class="edge">
<title>Eval&#45;&gt;Token</title>
<path fill="none" stroke="#666666" d="M420.58,-166.33C422.3,-171.5 424.06,-176.91 425.62,-182 445.77,-247.46 466.63,-324.62 478.29,-368.73"/>
<polygon fill="#666666" stroke="#666666" points="474.98,-369.9 480.91,-378.67 481.75,-368.11 474.98,-369.9"/>
</g>
<!-- Eval&#45;&gt;GrammarInterp -->
<g id="edge22" class="edge">
<title>Eval&#45;&gt;GrammarInterp</title>
<path fill="none" stroke="#666666" d="M344.94,-142.69C237.61,-146.91 36.28,-157.96 14.62,-182 -5.9,-204.78 -3.43,-226.21 14.62,-251 37.69,-282.66 77.35,-298.37 114.57,-306.04"/>
<polygon fill="#666666" stroke="#666666" points="114,-309.49 124.47,-307.91 115.3,-302.62 114,-309.49"/>
</g>
<!-- Eval&#45;&gt;GrammarParser -->
<g id="edge21" class="edge">
<title>Eval&#45;&gt;GrammarParser</title>
<path fill="none" stroke="#666666" d="M344.85,-148.07C301.69,-154.25 244.79,-164.84 196.62,-182 178.26,-188.55 159.08,-198.36 143.1,-207.5"/>
<polygon fill="#666666" stroke="#666666" points="140.96,-204.7 134.09,-212.76 144.49,-210.74 140.96,-204.7"/>
</g>
<!-- Eval&#45;&gt;GrammarAnalysis -->
<g id="edge23" class="edge">
<title>Eval&#45;&gt;GrammarAnalysis</title>
<path fill="none" stroke="#666666" d="M378.41,-166.19C362.07,-178.83 342.47,-193.99 326.34,-206.47"/>
<polygon fill="#666666" stroke="#666666" points="324.02,-203.83 318.26,-212.72 328.31,-209.37 324.02,-203.83"/>
</g>
<!-- Registry -->
<g id="node15" class="node">
<title>Registry</title>
<path fill="#fff3e0" stroke="#999999" d="M489.12,-77C489.12,-77 378.12,-77 378.12,-77 372.12,-77 366.12,-71 366.12,-65 366.12,-65 366.12,-51 366.12,-51 366.12,-45 372.12,-39 378.12,-39 378.12,-39 489.12,-39 489.12,-39 495.12,-39 501.12,-45 501.12,-51 501.12,-51 501.12,-65 501.12,-65 501.12,-71 495.12,-77 489.12,-77"/>
<text text-anchor="middle" x="433.62" y="-61.8" font-family="Helvetica,sans-Serif" font-size="14.00">Lego.Registry</text>
<text text-anchor="middle" x="433.62" y="-46.8" font-family="Helvetica,sans-Serif" font-size="14.00">import resolution</text>
</g>
<!-- Registry&#45;&gt;Eval -->
<g id="edge25" class="edge">
<title>Registry&#45;&gt;Eval</title>
<path fill="none" stroke="#666666" d="M428.63,-77.04C426.47,-84.85 423.87,-94.26 421.35,-103.35"/>
<polygon fill="#666666" stroke="#666666" points="417.97,-102.43 418.68,-113 424.72,-104.29 417.97,-102.43"/>
</g>
<!-- RewriteMachine -->
<g id="node16" class="node">
<title>RewriteMachine</title>
<path fill="#fff3e0" stroke="#999999" d="M335.62,-77C335.62,-77 195.62,-77 195.62,-77 189.62,-77 183.62,-71 183.62,-65 183.62,-65 183.62,-51 183.62,-51 183.62,-45 189.62,-39 195.62,-39 195.62,-39 335.62,-39 335.62,-39 341.62,-39 347.62,-45 347.62,-51 347.62,-51 347.62,-65 347.62,-65 347.62,-71 341.62,-77 335.62,-77"/>
<text text-anchor="middle" x="265.62" y="-61.8" font-family="Helvetica,sans-Serif" font-size="14.00">Lego.RewriteMachine</text>
<text text-anchor="middle" x="265.62" y="-46.8" font-family="Helvetica,sans-Serif" font-size="14.00">(experimental)</text>
</g>
<!-- Main -->
<g id="node17" class="node">
<title>Main</title>
<path fill="#ffebee" stroke="#999999" d="M947.12,-77C947.12,-77 876.12,-77 876.12,-77 870.12,-77 864.12,-71 864.12,-65 864.12,-65 864.12,-51 864.12,-51 864.12,-45 870.12,-39 876.12,-39 876.12,-39 947.12,-39 947.12,-39 953.12,-39 959.12,-45 959.12,-51 959.12,-51 959.12,-65 959.12,-65 959.12,-71 953.12,-77 947.12,-77"/>
<text text-anchor="middle" x="911.62" y="-61.8" font-family="Helvetica,sans-Serif" font-size="14.00">Main</text>
<text text-anchor="middle" x="911.62" y="-46.8" font-family="Helvetica,sans-Serif" font-size="14.00">Test runner</text>
</g>
<!-- Main&#45;&gt;Lego -->
<g id="edge26" class="edge">
<title>Main&#45;&gt;Lego</title>
<path fill="none" stroke="#666666" d="M909.71,-77.05C906.56,-108.35 900.62,-174.75 900.62,-231 900.62,-231 900.62,-231 900.62,-314.5 900.62,-401.08 830.03,-403.28 751.62,-440 733.23,-448.61 726.48,-443.69 706.62,-448 663.01,-457.46 614.97,-469.6 574.93,-480.2"/>
<polygon fill="#666666" stroke="#666666" points="573.96,-476.83 565.19,-482.79 575.76,-483.6 573.96,-476.83"/>
</g>
<!-- Repl -->
<g id="node18" class="node">
<title>Repl</title>
<path fill="#ffebee" stroke="#999999" d="M833.62,-77C833.62,-77 727.62,-77 727.62,-77 721.62,-77 715.62,-71 715.62,-65 715.62,-65 715.62,-51 715.62,-51 715.62,-45 721.62,-39 727.62,-39 727.62,-39 833.62,-39 833.62,-39 839.62,-39 845.62,-45 845.62,-51 845.62,-51 845.62,-65 845.62,-65 845.62,-71 839.62,-77 833.62,-77"/>
<text text-anchor="middle" x="780.62" y="-61.8" font-family="Helvetica,sans-Serif" font-size="14.00">Repl</text>
<text text-anchor="middle" x="780.62" y="-46.8" font-family="Helvetica,sans-Serif" font-size="14.00">Interactive REPL</text>
</g>
<!-- Repl&#45;&gt;Token -->
<g id="edge28" class="edge">
<title>Repl&#45;&gt;Token</title>
<path fill="none" stroke="#666666" d="M782.67,-77.02C784.5,-100.81 784.7,-143.26 767.62,-174 707.08,-282.98 641.98,-266.53 547.62,-348 538.83,-355.59 529.58,-364.06 521.04,-372.07"/>
<polygon fill="#666666" stroke="#666666" points="518.61,-369.55 513.75,-378.97 523.42,-374.63 518.61,-369.55"/>
</g>
<!-- Repl&#45;&gt;Eval -->
<g id="edge27" class="edge">
<title>Repl&#45;&gt;Eval</title>
<path fill="none" stroke="#666666" d="M730.41,-77.12C721.55,-79.98 712.37,-82.74 703.62,-85 631.46,-103.69 547.64,-118.34 488.36,-127.55"/>
<polygon fill="#666666" stroke="#666666" points="487.67,-124.11 478.32,-129.09 488.74,-131.03 487.67,-124.11"/>
</g>
</g>
</svg>
