<?xml version="1.0" encoding="UTF-8" standalone="no"?>
<!DOCTYPE svg PUBLIC "-//W3C//DTD SVG 1.1//EN"
 "http://www.w3.org/Graphics/SVG/1.1/DTD/svg11.dtd">
<!-- Generated by graphviz version 2.42.4 (0)
 -->
<!-- Title: LegoMath Pages: 1 -->
<svg width="2283pt" height="505pt"
 viewBox="0.00 0.00 2283.00 504.51" xmlns="http://www.w3.org/2000/svg" xmlns:xlink="http://www.w3.org/1999/xlink">
<g id="graph0" class="graph" transform="scale(1 1) rotate(0) translate(4 500.51)">
<title>LegoMath</title>
<polygon fill="white" stroke="transparent" points="-4,4 -4,-500.51 2279,-500.51 2279,4 -4,4"/>
<g id="clust1" class="cluster">
<title>cluster_category</title>
<path fill="#e3f2fd" stroke="#1565c0" d="M20,-104C20,-104 228,-104 228,-104 234,-104 240,-110 240,-116 240,-116 240,-443.14 240,-443.14 240,-449.14 234,-455.14 228,-455.14 228,-455.14 20,-455.14 20,-455.14 14,-455.14 8,-449.14 8,-443.14 8,-443.14 8,-116 8,-116 8,-110 14,-104 20,-104"/>
<text text-anchor="middle" x="124" y="-439.94" font-family="Times,serif" font-size="14.00" fill="#1565c0">Category Theory</text>
</g>
<g id="clust2" class="cluster">
<title>cluster_pieces</title>
<path fill="#e8f5e9" stroke="#388e3c" d="M900,-8C900,-8 1131,-8 1131,-8 1137,-8 1143,-14 1143,-20 1143,-20 1143,-442.51 1143,-442.51 1143,-448.51 1137,-454.51 1131,-454.51 1131,-454.51 900,-454.51 900,-454.51 894,-454.51 888,-448.51 888,-442.51 888,-442.51 888,-20 888,-20 888,-14 894,-8 900,-8"/>
<text text-anchor="middle" x="1015.5" y="-439.31" font-family="Times,serif" font-size="14.00" fill="#388e3c">5 Pieces (Lego Components)</text>
</g>
<g id="clust3" class="cluster">
<title>cluster_ops</title>
<path fill="#fff3e0" stroke="#f57c00" d="M260,-314.51C260,-314.51 868,-314.51 868,-314.51 874,-314.51 880,-320.51 880,-326.51 880,-326.51 880,-476.51 880,-476.51 880,-482.51 874,-488.51 868,-488.51 868,-488.51 260,-488.51 260,-488.51 254,-488.51 248,-482.51 248,-476.51 248,-476.51 248,-326.51 248,-326.51 248,-320.51 254,-314.51 260,-314.51"/>
<text text-anchor="middle" x="564" y="-473.31" font-family="Times,serif" font-size="14.00" fill="#f57c00">3 Operations (Composition)</text>
</g>
<g id="clust4" class="cluster">
<title>cluster_term</title>
<path fill="#f3e5f5" stroke="#7b1fa2" d="M1696,-8C1696,-8 2054,-8 2054,-8 2060,-8 2066,-14 2066,-20 2066,-20 2066,-442.51 2066,-442.51 2066,-448.51 2060,-454.51 2054,-454.51 2054,-454.51 1696,-454.51 1696,-454.51 1690,-454.51 1684,-448.51 1684,-442.51 1684,-442.51 1684,-20 1684,-20 1684,-14 1690,-8 1696,-8"/>
<text text-anchor="middle" x="1875" y="-439.31" font-family="Times,serif" font-size="14.00" fill="#7b1fa2">Term Algebra</text>
</g>
<g id="clust5" class="cluster">
<title>cluster_grammar_alg</title>
<path fill="#ffebee" stroke="#c62828" d="M2086,-104.63C2086,-104.63 2226,-104.63 2226,-104.63 2232,-104.63 2238,-110.63 2238,-116.63 2238,-116.63 2238,-442.51 2238,-442.51 2238,-448.51 2232,-454.51 2226,-454.51 2226,-454.51 2086,-454.51 2086,-454.51 2080,-454.51 2074,-448.51 2074,-442.51 2074,-442.51 2074,-116.63 2074,-116.63 2074,-110.63 2080,-104.63 2086,-104.63"/>
<text text-anchor="middle" x="2156" y="-439.31" font-family="Times,serif" font-size="14.00" fill="#c62828">Grammar Algebra</text>
</g>
<g id="clust6" class="cluster">
<title>cluster_rewrite</title>
<path fill="#e0f2f1" stroke="#00695c" d="M1205,-104.63C1205,-104.63 1457,-104.63 1457,-104.63 1463,-104.63 1469,-110.63 1469,-116.63 1469,-116.63 1469,-442.51 1469,-442.51 1469,-448.51 1463,-454.51 1457,-454.51 1457,-454.51 1205,-454.51 1205,-454.51 1199,-454.51 1193,-448.51 1193,-442.51 1193,-442.51 1193,-116.63 1193,-116.63 1193,-110.63 1199,-104.63 1205,-104.63"/>
<text text-anchor="middle" x="1331" y="-439.31" font-family="Times,serif" font-size="14.00" fill="#00695c">Rewriting</text>
</g>
<!-- Category -->
<g id="node1" class="node">
<title>Category</title>
<ellipse fill="#bbdefb" stroke="#1565c0" cx="115" cy="-378.51" rx="68.68" ry="22.76"/>
<text text-anchor="middle" x="115" y="-381.71" font-family="Helvetica,sans-Serif" font-size="11.00">Category</text>
<text text-anchor="middle" x="115" y="-369.71" font-family="Helvetica,sans-Serif" font-size="11.00">Ob, Hom, ∘, id</text>
</g>
<!-- Functor -->
<g id="node2" class="node">
<title>Functor</title>
<ellipse fill="#bbdefb" stroke="#1565c0" cx="60" cy="-239.88" rx="43.68" ry="22.76"/>
<text text-anchor="middle" x="60" y="-243.08" font-family="Helvetica,sans-Serif" font-size="11.00">Functor</text>
<text text-anchor="middle" x="60" y="-231.08" font-family="Helvetica,sans-Serif" font-size="11.00">F: C → D</text>
</g>
<!-- Category&#45;&gt;Functor -->
<g id="edge1" class="edge">
<title>Category&#45;&gt;Functor</title>
<path fill="none" stroke="black" d="M106.29,-355.86C97.19,-333.28 82.85,-297.66 72.54,-272.05"/>
<polygon fill="black" stroke="black" points="75.66,-270.4 68.67,-262.43 69.16,-273.01 75.66,-270.4"/>
<text text-anchor="middle" x="105" y="-290.31" font-family="Helvetica,sans-Serif" font-size="9.00">preserves</text>
</g>
<!-- Pushout -->
<g id="node3" class="node">
<title>Pushout</title>
<ellipse fill="#bbdefb" stroke="#1565c0" cx="186" cy="-239.88" rx="45.92" ry="22.76"/>
<text text-anchor="middle" x="186" y="-243.08" font-family="Helvetica,sans-Serif" font-size="11.00">Pushout</text>
<text text-anchor="middle" x="186" y="-231.08" font-family="Helvetica,sans-Serif" font-size="11.00">A ←C→ B</text>
</g>
<!-- Category&#45;&gt;Pushout -->
<g id="edge2" class="edge">
<title>Category&#45;&gt;Pushout</title>
<path fill="none" stroke="black" d="M126.09,-356.16C137.97,-333.3 156.92,-296.84 170.32,-271.05"/>
<polygon fill="black" stroke="black" points="173.48,-272.57 174.98,-262.08 167.27,-269.34 173.48,-272.57"/>
<text text-anchor="middle" x="170" y="-290.31" font-family="Helvetica,sans-Serif" font-size="9.00">has</text>
</g>
<!-- InitialAlg -->
<g id="node4" class="node">
<title>InitialAlg</title>
<ellipse fill="#bbdefb" stroke="#1565c0" cx="83" cy="-134.63" rx="67.35" ry="22.76"/>
<text text-anchor="middle" x="83" y="-137.83" font-family="Helvetica,sans-Serif" font-size="11.00">Initial Algebra</text>
<text text-anchor="middle" x="83" y="-125.83" font-family="Helvetica,sans-Serif" font-size="11.00">μF = Fix ExprF</text>
</g>
<!-- Functor&#45;&gt;InitialAlg -->
<g id="edge3" class="edge">
<title>Functor&#45;&gt;InitialAlg</title>
<path fill="none" stroke="black" d="M64.88,-216.98C68.08,-202.61 72.32,-183.57 75.89,-167.53"/>
<polygon fill="black" stroke="black" points="79.37,-168.02 78.13,-157.49 72.54,-166.49 79.37,-168.02"/>
<text text-anchor="middle" x="97.5" y="-185.05" font-family="Helvetica,sans-Serif" font-size="9.00">fixed point</text>
</g>
<!-- PushoutOp -->
<g id="node10" class="node">
<title>PushoutOp</title>
<polygon fill="#ffe0b2" stroke="#f57c00" points="771,-434.51 670,-378.51 771,-322.51 872,-378.51 771,-434.51"/>
<text text-anchor="middle" x="771" y="-393.71" font-family="Helvetica,sans-Serif" font-size="11.00">⊕</text>
<text text-anchor="middle" x="771" y="-381.71" font-family="Helvetica,sans-Serif" font-size="11.00">Pushout</text>
<text text-anchor="middle" x="771" y="-369.71" font-family="Helvetica,sans-Serif" font-size="11.00">disjoint union</text>
<text text-anchor="middle" x="771" y="-357.71" font-family="Helvetica,sans-Serif" font-size="11.00">+ identification</text>
</g>
<!-- Pushout&#45;&gt;PushoutOp -->
<g id="edge17" class="edge">
<title>Pushout&#45;&gt;PushoutOp</title>
<path fill="none" stroke="black" stroke-dasharray="5,2" d="M231.5,-243.1C316.26,-248.31 503.2,-264.9 652,-314.51 673.54,-321.69 695.86,-332.49 715.27,-343.13"/>
<polygon fill="black" stroke="black" points="713.83,-346.33 724.26,-348.16 717.24,-340.22 713.83,-346.33"/>
<text text-anchor="middle" x="624.5" y="-290.31" font-family="Helvetica,sans-Serif" font-size="9.00">instantiated as</text>
</g>
<!-- Term -->
<g id="node15" class="node">
<title>Term</title>
<path fill="#e1bee7" stroke="#7b1fa2" d="M1878,-156.63C1878,-156.63 1810,-156.63 1810,-156.63 1804,-156.63 1798,-150.63 1798,-144.63 1798,-144.63 1798,-124.63 1798,-124.63 1798,-118.63 1804,-112.63 1810,-112.63 1810,-112.63 1878,-112.63 1878,-112.63 1884,-112.63 1890,-118.63 1890,-124.63 1890,-124.63 1890,-144.63 1890,-144.63 1890,-150.63 1884,-156.63 1878,-156.63"/>
<text text-anchor="middle" x="1844" y="-143.83" font-family="Helvetica,sans-Serif" font-size="11.00">Term</text>
<text text-anchor="middle" x="1844" y="-131.83" font-family="Helvetica,sans-Serif" font-size="11.00">= Fix ExprF</text>
<text text-anchor="middle" x="1844" y="-119.83" font-family="Helvetica,sans-Serif" font-size="11.00">Initial Algebra</text>
</g>
<!-- InitialAlg&#45;&gt;Term -->
<g id="edge18" class="edge">
<title>InitialAlg&#45;&gt;Term</title>
<path fill="none" stroke="black" stroke-dasharray="5,2" d="M147.24,-141.36C316.75,-158.32 790.2,-200.37 1184.5,-185.25 1408.16,-176.68 1673.56,-151.81 1787.47,-140.44"/>
<polygon fill="black" stroke="black" points="1788.09,-143.89 1797.7,-139.41 1787.4,-136.93 1788.09,-143.89"/>
<text text-anchor="middle" x="1168" y="-185.05" font-family="Helvetica,sans-Serif" font-size="9.00">= Term</text>
</g>
<!-- Vocab -->
<g id="node5" class="node">
<title>Vocab</title>
<path fill="#c8e6c9" stroke="#388e3c" d="M1118.5,-400.51C1118.5,-400.51 1059.5,-400.51 1059.5,-400.51 1053.5,-400.51 1047.5,-394.51 1047.5,-388.51 1047.5,-388.51 1047.5,-368.51 1047.5,-368.51 1047.5,-362.51 1053.5,-356.51 1059.5,-356.51 1059.5,-356.51 1118.5,-356.51 1118.5,-356.51 1124.5,-356.51 1130.5,-362.51 1130.5,-368.51 1130.5,-368.51 1130.5,-388.51 1130.5,-388.51 1130.5,-394.51 1124.5,-400.51 1118.5,-400.51"/>
<text text-anchor="middle" x="1089" y="-387.71" font-family="Helvetica,sans-Serif" font-size="11.00">Vocab</text>
<text text-anchor="middle" x="1089" y="-375.71" font-family="Helvetica,sans-Serif" font-size="11.00">Free Monoid</text>
<text text-anchor="middle" x="1089" y="-363.71" font-family="Helvetica,sans-Serif" font-size="11.00">⟨Σ, ·, ε⟩</text>
</g>
<!-- Grammar -->
<g id="node6" class="node">
<title>Grammar</title>
<path fill="#c8e6c9" stroke="#388e3c" d="M1123.5,-261.88C1123.5,-261.88 1054.5,-261.88 1054.5,-261.88 1048.5,-261.88 1042.5,-255.88 1042.5,-249.88 1042.5,-249.88 1042.5,-229.88 1042.5,-229.88 1042.5,-223.88 1048.5,-217.88 1054.5,-217.88 1054.5,-217.88 1123.5,-217.88 1123.5,-217.88 1129.5,-217.88 1135.5,-223.88 1135.5,-229.88 1135.5,-229.88 1135.5,-249.88 1135.5,-249.88 1135.5,-255.88 1129.5,-261.88 1123.5,-261.88"/>
<text text-anchor="middle" x="1089" y="-249.08" font-family="Helvetica,sans-Serif" font-size="11.00">Grammar</text>
<text text-anchor="middle" x="1089" y="-237.08" font-family="Helvetica,sans-Serif" font-size="11.00">BNF Algebra</text>
<text text-anchor="middle" x="1089" y="-225.08" font-family="Helvetica,sans-Serif" font-size="11.00">GrammarExpr</text>
</g>
<!-- Vocab&#45;&gt;Grammar -->
<g id="edge4" class="edge">
<title>Vocab&#45;&gt;Grammar</title>
<path fill="none" stroke="black" d="M1089,-356.46C1089,-333.96 1089,-298.04 1089,-272.22"/>
<polygon fill="black" stroke="black" points="1092.5,-272.18 1089,-262.18 1085.5,-272.18 1092.5,-272.18"/>
<text text-anchor="middle" x="1104" y="-290.31" font-family="Helvetica,sans-Serif" font-size="9.00">literals</text>
</g>
<!-- Rules -->
<g id="node7" class="node">
<title>Rules</title>
<path fill="#c8e6c9" stroke="#388e3c" d="M1061.5,-156.63C1061.5,-156.63 962.5,-156.63 962.5,-156.63 956.5,-156.63 950.5,-150.63 950.5,-144.63 950.5,-144.63 950.5,-124.63 950.5,-124.63 950.5,-118.63 956.5,-112.63 962.5,-112.63 962.5,-112.63 1061.5,-112.63 1061.5,-112.63 1067.5,-112.63 1073.5,-118.63 1073.5,-124.63 1073.5,-124.63 1073.5,-144.63 1073.5,-144.63 1073.5,-150.63 1067.5,-156.63 1061.5,-156.63"/>
<text text-anchor="middle" x="1012" y="-143.83" font-family="Helvetica,sans-Serif" font-size="11.00">Rules</text>
<text text-anchor="middle" x="1012" y="-131.83" font-family="Helvetica,sans-Serif" font-size="11.00">Rewrite System</text>
<text text-anchor="middle" x="1012" y="-119.83" font-family="Helvetica,sans-Serif" font-size="11.00">pattern → template</text>
</g>
<!-- Grammar&#45;&gt;Rules -->
<g id="edge5" class="edge">
<title>Grammar&#45;&gt;Rules</title>
<path fill="none" stroke="black" d="M1073.05,-217.49C1061.72,-202.3 1046.37,-181.71 1033.89,-164.99"/>
<polygon fill="black" stroke="black" points="1036.45,-162.57 1027.67,-156.64 1030.84,-166.75 1036.45,-162.57"/>
<text text-anchor="middle" x="1076" y="-185.05" font-family="Helvetica,sans-Serif" font-size="9.00">parsed by</text>
</g>
<!-- GrammarExpr -->
<g id="node18" class="node">
<title>GrammarExpr</title>
<path fill="#ffcdd2" stroke="#c62828" d="M2215.5,-400.51C2215.5,-400.51 2096.5,-400.51 2096.5,-400.51 2090.5,-400.51 2084.5,-394.51 2084.5,-388.51 2084.5,-388.51 2084.5,-368.51 2084.5,-368.51 2084.5,-362.51 2090.5,-356.51 2096.5,-356.51 2096.5,-356.51 2215.5,-356.51 2215.5,-356.51 2221.5,-356.51 2227.5,-362.51 2227.5,-368.51 2227.5,-368.51 2227.5,-388.51 2227.5,-388.51 2227.5,-394.51 2221.5,-400.51 2215.5,-400.51"/>
<text text-anchor="middle" x="2156" y="-387.71" font-family="Helvetica,sans-Serif" font-size="11.00">GrammarExpr</text>
<text text-anchor="middle" x="2156" y="-375.71" font-family="Helvetica,sans-Serif" font-size="11.00">Free Algebra</text>
<text text-anchor="middle" x="2156" y="-363.71" font-family="Helvetica,sans-Serif" font-size="11.00">GSeq | GAlt | GRep | ...</text>
</g>
<!-- Grammar&#45;&gt;GrammarExpr -->
<g id="edge19" class="edge">
<title>Grammar&#45;&gt;GrammarExpr</title>
<path fill="none" stroke="black" stroke-dasharray="5,2" d="M1135.54,-253.43C1150.86,-257.03 1168.05,-260.52 1184,-262.51 1212.59,-266.07 2200.87,-266.89 2221,-287.51 2239.55,-306.51 2219.31,-331.12 2196.66,-349.81"/>
<polygon fill="black" stroke="black" points="2194.3,-347.21 2188.61,-356.15 2198.63,-352.71 2194.3,-347.21"/>
<text text-anchor="middle" x="2250.5" y="-290.31" font-family="Helvetica,sans-Serif" font-size="9.00">defined by</text>
</g>
<!-- Tests -->
<g id="node9" class="node">
<title>Tests</title>
<path fill="#c8e6c9" stroke="#388e3c" d="M1065,-52C1065,-52 959,-52 959,-52 953,-52 947,-46 947,-40 947,-40 947,-28 947,-28 947,-22 953,-16 959,-16 959,-16 1065,-16 1065,-16 1071,-16 1077,-22 1077,-28 1077,-28 1077,-40 1077,-40 1077,-46 1071,-52 1065,-52"/>
<text text-anchor="middle" x="1012" y="-37.2" font-family="Helvetica,sans-Serif" font-size="11.00">Tests</text>
<text text-anchor="middle" x="1012" y="-25.2" font-family="Helvetica,sans-Serif" font-size="11.00">input ~~&gt; expected</text>
</g>
<!-- Rules&#45;&gt;Tests -->
<g id="edge6" class="edge">
<title>Rules&#45;&gt;Tests</title>
<path fill="none" stroke="black" d="M1012,-112.23C1012,-97.59 1012,-78.06 1012,-62.3"/>
<polygon fill="black" stroke="black" points="1015.5,-62.1 1012,-52.1 1008.5,-62.1 1015.5,-62.1"/>
<text text-anchor="middle" x="1036.5" y="-79.8" font-family="Helvetica,sans-Serif" font-size="9.00">verified by</text>
</g>
<!-- Rule -->
<g id="node23" class="node">
<title>Rule</title>
<path fill="#b2dfdb" stroke="#00695c" d="M1351.5,-257.88C1351.5,-257.88 1252.5,-257.88 1252.5,-257.88 1246.5,-257.88 1240.5,-251.88 1240.5,-245.88 1240.5,-245.88 1240.5,-233.88 1240.5,-233.88 1240.5,-227.88 1246.5,-221.88 1252.5,-221.88 1252.5,-221.88 1351.5,-221.88 1351.5,-221.88 1357.5,-221.88 1363.5,-227.88 1363.5,-233.88 1363.5,-233.88 1363.5,-245.88 1363.5,-245.88 1363.5,-251.88 1357.5,-257.88 1351.5,-257.88"/>
<text text-anchor="middle" x="1302" y="-243.08" font-family="Helvetica,sans-Serif" font-size="11.00">Rule</text>
<text text-anchor="middle" x="1302" y="-231.08" font-family="Helvetica,sans-Serif" font-size="11.00">pattern → template</text>
</g>
<!-- Rules&#45;&gt;Rule -->
<g id="edge20" class="edge">
<title>Rules&#45;&gt;Rule</title>
<path fill="none" stroke="black" stroke-dasharray="5,2" d="M1073.53,-143.38C1172.59,-155.93 1356.66,-179.58 1359,-182.25 1369.13,-193.84 1359.94,-205.96 1346.2,-216"/>
<polygon fill="black" stroke="black" points="1344.09,-213.2 1337.7,-221.65 1347.96,-219.03 1344.09,-213.2"/>
<text text-anchor="middle" x="1387" y="-185.05" font-family="Helvetica,sans-Serif" font-size="9.00">consists of</text>
</g>
<!-- Types -->
<g id="node8" class="node">
<title>Types</title>
<path fill="#c8e6c9" stroke="#388e3c" d="M994,-261.88C994,-261.88 908,-261.88 908,-261.88 902,-261.88 896,-255.88 896,-249.88 896,-249.88 896,-229.88 896,-229.88 896,-223.88 902,-217.88 908,-217.88 908,-217.88 994,-217.88 994,-217.88 1000,-217.88 1006,-223.88 1006,-229.88 1006,-229.88 1006,-249.88 1006,-249.88 1006,-255.88 1000,-261.88 994,-261.88"/>
<text text-anchor="middle" x="951" y="-249.08" font-family="Helvetica,sans-Serif" font-size="11.00">Types</text>
<text text-anchor="middle" x="951" y="-237.08" font-family="Helvetica,sans-Serif" font-size="11.00">(optional)</text>
<text text-anchor="middle" x="951" y="-225.08" font-family="Helvetica,sans-Serif" font-size="11.00">type annotations</text>
</g>
<!-- Types&#45;&gt;Rules -->
<g id="edge7" class="edge">
<title>Types&#45;&gt;Rules</title>
<path fill="none" stroke="black" stroke-dasharray="5,2" d="M963.16,-217.87C969.36,-207.18 977.05,-194.01 984,-182.25 987.14,-176.94 990.5,-171.31 993.77,-165.86"/>
<polygon fill="black" stroke="black" points="996.97,-167.32 999.12,-156.95 990.97,-163.72 996.97,-167.32"/>
<text text-anchor="middle" x="1007.5" y="-185.05" font-family="Helvetica,sans-Serif" font-size="9.00">constrains</text>
</g>
<!-- SeqOp -->
<g id="node11" class="node">
<title>SeqOp</title>
<polygon fill="#ffe0b2" stroke="#f57c00" points="548,-422.51 462,-378.51 548,-334.51 634,-378.51 548,-422.51"/>
<text text-anchor="middle" x="548" y="-387.71" font-family="Helvetica,sans-Serif" font-size="11.00">·</text>
<text text-anchor="middle" x="548" y="-375.71" font-family="Helvetica,sans-Serif" font-size="11.00">Sequential</text>
<text text-anchor="middle" x="548" y="-363.71" font-family="Helvetica,sans-Serif" font-size="11.00">import order</text>
</g>
<!-- ParOp -->
<g id="node12" class="node">
<title>ParOp</title>
<polygon fill="#ffe0b2" stroke="#f57c00" points="341,-422.51 256,-378.51 341,-334.51 426,-378.51 341,-422.51"/>
<text text-anchor="middle" x="341" y="-387.71" font-family="Helvetica,sans-Serif" font-size="11.00">‖</text>
<text text-anchor="middle" x="341" y="-375.71" font-family="Helvetica,sans-Serif" font-size="11.00">Parallel</text>
<text text-anchor="middle" x="341" y="-363.71" font-family="Helvetica,sans-Serif" font-size="11.00">independent</text>
</g>
<!-- ExprF -->
<g id="node13" class="node">
<title>ExprF</title>
<path fill="#e1bee7" stroke="#7b1fa2" d="M2017,-400.51C2017,-400.51 1931,-400.51 1931,-400.51 1925,-400.51 1919,-394.51 1919,-388.51 1919,-388.51 1919,-368.51 1919,-368.51 1919,-362.51 1925,-356.51 1931,-356.51 1931,-356.51 2017,-356.51 2017,-356.51 2023,-356.51 2029,-362.51 2029,-368.51 2029,-368.51 2029,-388.51 2029,-388.51 2029,-394.51 2023,-400.51 2017,-400.51"/>
<text text-anchor="middle" x="1974" y="-387.71" font-family="Helvetica,sans-Serif" font-size="11.00">ExprF a</text>
<text text-anchor="middle" x="1974" y="-375.71" font-family="Helvetica,sans-Serif" font-size="11.00">Functor</text>
<text text-anchor="middle" x="1974" y="-363.71" font-family="Helvetica,sans-Serif" font-size="11.00">VarF | ConF | LitF</text>
</g>
<!-- Fix -->
<g id="node14" class="node">
<title>Fix</title>
<path fill="#e1bee7" stroke="#7b1fa2" d="M2046,-261.88C2046,-261.88 1902,-261.88 1902,-261.88 1896,-261.88 1890,-255.88 1890,-249.88 1890,-249.88 1890,-229.88 1890,-229.88 1890,-223.88 1896,-217.88 1902,-217.88 1902,-217.88 2046,-217.88 2046,-217.88 2052,-217.88 2058,-223.88 2058,-229.88 2058,-229.88 2058,-249.88 2058,-249.88 2058,-255.88 2052,-261.88 2046,-261.88"/>
<text text-anchor="middle" x="1974" y="-249.08" font-family="Helvetica,sans-Serif" font-size="11.00">Fix f</text>
<text text-anchor="middle" x="1974" y="-237.08" font-family="Helvetica,sans-Serif" font-size="11.00">Fixed Point</text>
<text text-anchor="middle" x="1974" y="-225.08" font-family="Helvetica,sans-Serif" font-size="11.00">newtype Fix f = In (f (Fix f))</text>
</g>
<!-- ExprF&#45;&gt;Fix -->
<g id="edge8" class="edge">
<title>ExprF&#45;&gt;Fix</title>
<path fill="none" stroke="black" d="M1974,-356.46C1974,-333.96 1974,-298.04 1974,-272.22"/>
<polygon fill="black" stroke="black" points="1977.5,-272.18 1974,-262.18 1970.5,-272.18 1977.5,-272.18"/>
<text text-anchor="middle" x="1997" y="-290.31" font-family="Helvetica,sans-Serif" font-size="9.00">applied to</text>
</g>
<!-- Fix&#45;&gt;Term -->
<g id="edge9" class="edge">
<title>Fix&#45;&gt;Term</title>
<path fill="none" stroke="black" d="M1947.38,-217.74C1927.49,-201.94 1900.12,-180.2 1878.54,-163.07"/>
<polygon fill="black" stroke="black" points="1880.59,-160.22 1870.59,-156.74 1876.24,-165.7 1880.59,-160.22"/>
<text text-anchor="middle" x="1927.5" y="-185.05" font-family="Helvetica,sans-Serif" font-size="9.00">= type</text>
</g>
<!-- Cata -->
<g id="node16" class="node">
<title>Cata</title>
<path fill="#e1bee7" stroke="#7b1fa2" d="M1914,-52C1914,-52 1774,-52 1774,-52 1768,-52 1762,-46 1762,-40 1762,-40 1762,-28 1762,-28 1762,-22 1768,-16 1774,-16 1774,-16 1914,-16 1914,-16 1920,-16 1926,-22 1926,-28 1926,-28 1926,-40 1926,-40 1926,-46 1920,-52 1914,-52"/>
<text text-anchor="middle" x="1844" y="-37.2" font-family="Helvetica,sans-Serif" font-size="11.00">cata :: (f a → a) → Fix f → a</text>
<text text-anchor="middle" x="1844" y="-25.2" font-family="Helvetica,sans-Serif" font-size="11.00">Fold (catamorphism)</text>
</g>
<!-- Term&#45;&gt;Cata -->
<g id="edge10" class="edge">
<title>Term&#45;&gt;Cata</title>
<path fill="none" stroke="black" d="M1844,-112.23C1844,-97.59 1844,-78.06 1844,-62.3"/>
<polygon fill="black" stroke="black" points="1847.5,-62.1 1844,-52.1 1840.5,-62.1 1847.5,-62.1"/>
<text text-anchor="middle" x="1875" y="-79.8" font-family="Helvetica,sans-Serif" font-size="9.00">consumed by</text>
</g>
<!-- Pattern -->
<g id="node21" class="node">
<title>Pattern</title>
<path fill="#b2dfdb" stroke="#00695c" d="M1449,-400.51C1449,-400.51 1365,-400.51 1365,-400.51 1359,-400.51 1353,-394.51 1353,-388.51 1353,-388.51 1353,-368.51 1353,-368.51 1353,-362.51 1359,-356.51 1365,-356.51 1365,-356.51 1449,-356.51 1449,-356.51 1455,-356.51 1461,-362.51 1461,-368.51 1461,-368.51 1461,-388.51 1461,-388.51 1461,-394.51 1455,-400.51 1449,-400.51"/>
<text text-anchor="middle" x="1407" y="-387.71" font-family="Helvetica,sans-Serif" font-size="11.00">Pattern</text>
<text text-anchor="middle" x="1407" y="-375.71" font-family="Helvetica,sans-Serif" font-size="11.00">$var binding</text>
<text text-anchor="middle" x="1407" y="-363.71" font-family="Helvetica,sans-Serif" font-size="11.00">structural match</text>
</g>
<!-- Term&#45;&gt;Pattern -->
<g id="edge21" class="edge">
<title>Term&#45;&gt;Pattern</title>
<path fill="none" stroke="black" stroke-dasharray="5,2" d="M1797.95,-139.75C1709.6,-148.61 1521.01,-172.38 1476,-217.25 1439.88,-253.26 1421.42,-311.23 1413.02,-346.7"/>
<polygon fill="black" stroke="black" points="1409.6,-345.97 1410.82,-356.5 1416.43,-347.51 1409.6,-345.97"/>
<text text-anchor="middle" x="1514.5" y="-237.68" font-family="Helvetica,sans-Serif" font-size="9.00">matched against</text>
</g>
<!-- Template -->
<g id="node22" class="node">
<title>Template</title>
<path fill="#b2dfdb" stroke="#00695c" d="M1304.5,-400.51C1304.5,-400.51 1213.5,-400.51 1213.5,-400.51 1207.5,-400.51 1201.5,-394.51 1201.5,-388.51 1201.5,-388.51 1201.5,-368.51 1201.5,-368.51 1201.5,-362.51 1207.5,-356.51 1213.5,-356.51 1213.5,-356.51 1304.5,-356.51 1304.5,-356.51 1310.5,-356.51 1316.5,-362.51 1316.5,-368.51 1316.5,-368.51 1316.5,-388.51 1316.5,-388.51 1316.5,-394.51 1310.5,-400.51 1304.5,-400.51"/>
<text text-anchor="middle" x="1259" y="-387.71" font-family="Helvetica,sans-Serif" font-size="11.00">Template</text>
<text text-anchor="middle" x="1259" y="-375.71" font-family="Helvetica,sans-Serif" font-size="11.00">$var substitution</text>
<text text-anchor="middle" x="1259" y="-363.71" font-family="Helvetica,sans-Serif" font-size="11.00">term construction</text>
</g>
<!-- Term&#45;&gt;Template -->
<g id="edge22" class="edge">
<title>Term&#45;&gt;Template</title>
<path fill="none" stroke="black" stroke-dasharray="5,2" d="M1797.87,-147.66C1750.71,-160.99 1676.18,-184.94 1617,-217.25 1587.99,-233.09 1587.88,-248.38 1558,-262.51 1466,-306.01 1426.16,-269.27 1335,-314.51 1317.29,-323.3 1300.11,-336.96 1286.58,-349.32"/>
<polygon fill="black" stroke="black" points="1283.94,-346.99 1279.05,-356.39 1288.73,-352.09 1283.94,-346.99"/>
<text text-anchor="middle" x="1646" y="-237.68" font-family="Helvetica,sans-Serif" font-size="9.00">produced by</text>
</g>
<!-- Ana -->
<g id="node17" class="node">
<title>Ana</title>
<path fill="#e1bee7" stroke="#7b1fa2" d="M1841.5,-257.88C1841.5,-257.88 1704.5,-257.88 1704.5,-257.88 1698.5,-257.88 1692.5,-251.88 1692.5,-245.88 1692.5,-245.88 1692.5,-233.88 1692.5,-233.88 1692.5,-227.88 1698.5,-221.88 1704.5,-221.88 1704.5,-221.88 1841.5,-221.88 1841.5,-221.88 1847.5,-221.88 1853.5,-227.88 1853.5,-233.88 1853.5,-233.88 1853.5,-245.88 1853.5,-245.88 1853.5,-251.88 1847.5,-257.88 1841.5,-257.88"/>
<text text-anchor="middle" x="1773" y="-243.08" font-family="Helvetica,sans-Serif" font-size="11.00">ana :: (a → f a) → a → Fix f</text>
<text text-anchor="middle" x="1773" y="-231.08" font-family="Helvetica,sans-Serif" font-size="11.00">Unfold (anamorphism)</text>
</g>
<!-- Ana&#45;&gt;Term -->
<g id="edge11" class="edge">
<title>Ana&#45;&gt;Term</title>
<path fill="none" stroke="black" d="M1784.72,-221.83C1795.28,-206.47 1811.04,-183.56 1823.65,-165.22"/>
<polygon fill="black" stroke="black" points="1826.78,-166.85 1829.56,-156.63 1821.01,-162.89 1826.78,-166.85"/>
<text text-anchor="middle" x="1831.5" y="-185.05" font-family="Helvetica,sans-Serif" font-size="9.00">produces</text>
</g>
<!-- BNF -->
<g id="node19" class="node">
<title>BNF</title>
<path fill="#ffcdd2" stroke="#c62828" d="M2187.5,-261.88C2187.5,-261.88 2124.5,-261.88 2124.5,-261.88 2118.5,-261.88 2112.5,-255.88 2112.5,-249.88 2112.5,-249.88 2112.5,-229.88 2112.5,-229.88 2112.5,-223.88 2118.5,-217.88 2124.5,-217.88 2124.5,-217.88 2187.5,-217.88 2187.5,-217.88 2193.5,-217.88 2199.5,-223.88 2199.5,-229.88 2199.5,-229.88 2199.5,-249.88 2199.5,-249.88 2199.5,-255.88 2193.5,-261.88 2187.5,-261.88"/>
<text text-anchor="middle" x="2156" y="-249.08" font-family="Helvetica,sans-Serif" font-size="11.00">BNF</text>
<text text-anchor="middle" x="2156" y="-237.08" font-family="Helvetica,sans-Serif" font-size="11.00">Context&#45;Free</text>
<text text-anchor="middle" x="2156" y="-225.08" font-family="Helvetica,sans-Serif" font-size="11.00">productions</text>
</g>
<!-- GrammarExpr&#45;&gt;BNF -->
<g id="edge12" class="edge">
<title>GrammarExpr&#45;&gt;BNF</title>
<path fill="none" stroke="black" d="M2154.02,-356.42C2152.56,-338.18 2150.99,-311.11 2152,-287.51 2152.21,-282.59 2152.55,-277.39 2152.93,-272.32"/>
<polygon fill="black" stroke="black" points="2156.43,-272.47 2153.78,-262.21 2149.46,-271.88 2156.43,-272.47"/>
<text text-anchor="middle" x="2184" y="-290.31" font-family="Helvetica,sans-Serif" font-size="9.00">interpreted as</text>
</g>
<!-- Bidirectional -->
<g id="node20" class="node">
<title>Bidirectional</title>
<path fill="#ffcdd2" stroke="#c62828" d="M2218.5,-156.63C2218.5,-156.63 2093.5,-156.63 2093.5,-156.63 2087.5,-156.63 2081.5,-150.63 2081.5,-144.63 2081.5,-144.63 2081.5,-124.63 2081.5,-124.63 2081.5,-118.63 2087.5,-112.63 2093.5,-112.63 2093.5,-112.63 2218.5,-112.63 2218.5,-112.63 2224.5,-112.63 2230.5,-118.63 2230.5,-124.63 2230.5,-124.63 2230.5,-144.63 2230.5,-144.63 2230.5,-150.63 2224.5,-156.63 2218.5,-156.63"/>
<text text-anchor="middle" x="2156" y="-143.83" font-family="Helvetica,sans-Serif" font-size="11.00">Bidirectional</text>
<text text-anchor="middle" x="2156" y="-131.83" font-family="Helvetica,sans-Serif" font-size="11.00">parse ↔ print</text>
<text text-anchor="middle" x="2156" y="-119.83" font-family="Helvetica,sans-Serif" font-size="11.00">Grammar as Expression</text>
</g>
<!-- BNF&#45;&gt;Bidirectional -->
<g id="edge13" class="edge">
<title>BNF&#45;&gt;Bidirectional</title>
<path fill="none" stroke="black" d="M2156,-217.49C2156,-202.85 2156,-183.22 2156,-166.84"/>
<polygon fill="black" stroke="black" points="2159.5,-166.64 2156,-156.64 2152.5,-166.64 2159.5,-166.64"/>
<text text-anchor="middle" x="2173.5" y="-185.05" font-family="Helvetica,sans-Serif" font-size="9.00">enables</text>
</g>
<!-- Pattern&#45;&gt;Rule -->
<g id="edge14" class="edge">
<title>Pattern&#45;&gt;Rule</title>
<path fill="none" stroke="black" d="M1390.82,-356.46C1372.22,-332.25 1341.67,-292.51 1321.7,-266.51"/>
<polygon fill="black" stroke="black" points="1324.23,-264.06 1315.36,-258.27 1318.68,-268.33 1324.23,-264.06"/>
<text text-anchor="middle" x="1354.5" y="-290.31" font-family="Helvetica,sans-Serif" font-size="9.00">LHS</text>
</g>
<!-- Template&#45;&gt;Rule -->
<g id="edge15" class="edge">
<title>Template&#45;&gt;Rule</title>
<path fill="none" stroke="black" d="M1263.88,-356.19C1268.28,-337.81 1275.23,-310.66 1283,-287.51 1285.19,-280.98 1287.83,-274.06 1290.44,-267.6"/>
<polygon fill="black" stroke="black" points="1293.84,-268.54 1294.44,-257.96 1287.37,-265.86 1293.84,-268.54"/>
<text text-anchor="middle" x="1292.5" y="-290.31" font-family="Helvetica,sans-Serif" font-size="9.00">RHS</text>
</g>
<!-- Normalize -->
<g id="node24" class="node">
<title>Normalize</title>
<path fill="#b2dfdb" stroke="#00695c" d="M1352.5,-156.63C1352.5,-156.63 1251.5,-156.63 1251.5,-156.63 1245.5,-156.63 1239.5,-150.63 1239.5,-144.63 1239.5,-144.63 1239.5,-124.63 1239.5,-124.63 1239.5,-118.63 1245.5,-112.63 1251.5,-112.63 1251.5,-112.63 1352.5,-112.63 1352.5,-112.63 1358.5,-112.63 1364.5,-118.63 1364.5,-124.63 1364.5,-124.63 1364.5,-144.63 1364.5,-144.63 1364.5,-150.63 1358.5,-156.63 1352.5,-156.63"/>
<text text-anchor="middle" x="1302" y="-143.83" font-family="Helvetica,sans-Serif" font-size="11.00">normalize</text>
<text text-anchor="middle" x="1302" y="-131.83" font-family="Helvetica,sans-Serif" font-size="11.00">fixed&#45;point iteration</text>
<text text-anchor="middle" x="1302" y="-119.83" font-family="Helvetica,sans-Serif" font-size="11.00">with fuel</text>
</g>
<!-- Rule&#45;&gt;Normalize -->
<g id="edge16" class="edge">
<title>Rule&#45;&gt;Normalize</title>
<path fill="none" stroke="black" d="M1302,-221.83C1302,-206.89 1302,-184.8 1302,-166.73"/>
<polygon fill="black" stroke="black" points="1305.5,-166.63 1302,-156.63 1298.5,-166.63 1305.5,-166.63"/>
<text text-anchor="middle" x="1326" y="-185.05" font-family="Helvetica,sans-Serif" font-size="9.00">applied by</text>
</g>
</g>
</svg>
