<?xml version="1.0" encoding="UTF-8" standalone="no"?>
<!DOCTYPE svg PUBLIC "-//W3C//DTD SVG 1.1//EN"
 "http://www.w3.org/Graphics/SVG/1.1/DTD/svg11.dtd">
<!-- Generated by graphviz version 2.42.4 (0)
 -->
<!-- Title: LegoStructure Pages: 1 -->
<svg width="3045pt" height="325pt"
 viewBox="0.00 0.00 3044.81 324.72" xmlns="http://www.w3.org/2000/svg" xmlns:xlink="http://www.w3.org/1999/xlink">
<g id="graph0" class="graph" transform="scale(1 1) rotate(0) translate(4 320.72)">
<title>LegoStructure</title>
<polygon fill="white" stroke="transparent" points="-4,4 -4,-320.72 3040.81,-320.72 3040.81,4 -4,4"/>
<g id="clust3" class="cluster">
<title>cluster_grammar</title>
<path fill="#f3e5f5" stroke="#7b1fa2" d="M167.81,-22.79C167.81,-22.79 974.81,-22.79 974.81,-22.79 980.81,-22.79 986.81,-28.79 986.81,-34.79 986.81,-34.79 986.81,-83.79 986.81,-83.79 986.81,-89.79 980.81,-95.79 974.81,-95.79 974.81,-95.79 167.81,-95.79 167.81,-95.79 161.81,-95.79 155.81,-89.79 155.81,-83.79 155.81,-83.79 155.81,-34.79 155.81,-34.79 155.81,-28.79 161.81,-22.79 167.81,-22.79"/>
<text text-anchor="middle" x="571.31" y="-82.19" font-family="Times,serif" font-size="12.00" fill="#7b1fa2">Grammar Constructors</text>
</g>
<g id="clust4" class="cluster">
<title>cluster_rules</title>
<path fill="#fff3e0" stroke="#e65100" d="M1025.81,-22.79C1025.81,-22.79 1450.81,-22.79 1450.81,-22.79 1456.81,-22.79 1462.81,-28.79 1462.81,-34.79 1462.81,-34.79 1462.81,-83.79 1462.81,-83.79 1462.81,-89.79 1456.81,-95.79 1450.81,-95.79 1450.81,-95.79 1025.81,-95.79 1025.81,-95.79 1019.81,-95.79 1013.81,-89.79 1013.81,-83.79 1013.81,-83.79 1013.81,-34.79 1013.81,-34.79 1013.81,-28.79 1019.81,-22.79 1025.81,-22.79"/>
<text text-anchor="middle" x="1238.31" y="-82.19" font-family="Times,serif" font-size="12.00" fill="#e65100">Rule Constructors</text>
</g>
<g id="clust6" class="cluster">
<title>cluster_equation</title>
<path fill="#f5f5f5" stroke="#000000" d="M2574.81,-157.58C2574.81,-157.58 3016.81,-157.58 3016.81,-157.58 3022.81,-157.58 3028.81,-163.58 3028.81,-169.58 3028.81,-169.58 3028.81,-276.58 3028.81,-276.58 3028.81,-282.58 3022.81,-288.58 3016.81,-288.58 3016.81,-288.58 2574.81,-288.58 2574.81,-288.58 2568.81,-288.58 2562.81,-282.58 2562.81,-276.58 2562.81,-276.58 2562.81,-169.58 2562.81,-169.58 2562.81,-163.58 2568.81,-157.58 2574.81,-157.58"/>
<text text-anchor="middle" x="2795.81" y="-273.38" font-family="Times,serif" font-size="14.00">The Fundamental Equation</text>
</g>
<!-- NamePiece -->
<g id="node1" class="node">
<title>NamePiece</title>
<polygon fill="#bbdefb" stroke="#1565c0" points="301.31,-246.08 234.31,-246.08 230.31,-242.08 230.31,-177.08 297.31,-177.08 301.31,-181.08 301.31,-246.08"/>
<polyline fill="none" stroke="#1565c0" points="297.31,-242.08 230.31,-242.08 "/>
<polyline fill="none" stroke="#1565c0" points="297.31,-242.08 297.31,-177.08 "/>
<polyline fill="none" stroke="#1565c0" points="297.31,-242.08 301.31,-246.08 "/>
<text text-anchor="middle" x="265.81" y="-233.28" font-family="Helvetica,sans-Serif" font-size="11.00">Name</text>
<text text-anchor="middle" x="265.81" y="-221.28" font-family="Helvetica,sans-Serif" font-size="11.00">&#45;&#45;&#45;&#45;&#45;</text>
<text text-anchor="middle" x="265.81" y="-209.28" font-family="Helvetica,sans-Serif" font-size="11.00">Set</text>
<text text-anchor="middle" x="265.81" y="-184.28" font-family="Helvetica,sans-Serif" font-size="11.00">Identifiers</text>
</g>
<!-- GraphPiece -->
<g id="node2" class="node">
<title>GraphPiece</title>
<polygon fill="#bbdefb" stroke="#1565c0" points="445.31,-246.08 348.31,-246.08 344.31,-242.08 344.31,-177.08 441.31,-177.08 445.31,-181.08 445.31,-246.08"/>
<polyline fill="none" stroke="#1565c0" points="441.31,-242.08 344.31,-242.08 "/>
<polyline fill="none" stroke="#1565c0" points="441.31,-242.08 441.31,-177.08 "/>
<polyline fill="none" stroke="#1565c0" points="441.31,-242.08 445.31,-246.08 "/>
<text text-anchor="middle" x="394.81" y="-233.28" font-family="Helvetica,sans-Serif" font-size="11.00">Graph</text>
<text text-anchor="middle" x="394.81" y="-221.28" font-family="Helvetica,sans-Serif" font-size="11.00">&#45;&#45;&#45;&#45;&#45;</text>
<text text-anchor="middle" x="394.81" y="-209.28" font-family="Helvetica,sans-Serif" font-size="11.00">Monoid</text>
<text text-anchor="middle" x="394.81" y="-184.28" font-family="Helvetica,sans-Serif" font-size="11.00">Nodes + Edges</text>
</g>
<!-- GrammarPiece -->
<g id="node3" class="node">
<title>GrammarPiece</title>
<polygon fill="#bbdefb" stroke="#1565c0" points="574.81,-246.08 492.81,-246.08 488.81,-242.08 488.81,-177.08 570.81,-177.08 574.81,-181.08 574.81,-246.08"/>
<polyline fill="none" stroke="#1565c0" points="570.81,-242.08 488.81,-242.08 "/>
<polyline fill="none" stroke="#1565c0" points="570.81,-242.08 570.81,-177.08 "/>
<polyline fill="none" stroke="#1565c0" points="570.81,-242.08 574.81,-246.08 "/>
<text text-anchor="middle" x="531.81" y="-233.28" font-family="Helvetica,sans-Serif" font-size="11.00">Grammar</text>
<text text-anchor="middle" x="531.81" y="-221.28" font-family="Helvetica,sans-Serif" font-size="11.00">&#45;&#45;&#45;&#45;&#45;</text>
<text text-anchor="middle" x="531.81" y="-209.28" font-family="Helvetica,sans-Serif" font-size="11.00">Free Algebra</text>
<text text-anchor="middle" x="531.81" y="-184.28" font-family="Helvetica,sans-Serif" font-size="11.00">Syntax</text>
</g>
<!-- FixOp -->
<g id="node8" class="node">
<title>FixOp</title>
<ellipse fill="#c8e6c9" stroke="#2e7d32" cx="60.81" cy="-48.79" rx="60.62" ry="48.58"/>
<text text-anchor="middle" x="60.81" y="-70.49" font-family="Helvetica,sans-Serif" font-size="11.00">Fix (mu)</text>
<text text-anchor="middle" x="60.81" y="-58.49" font-family="Helvetica,sans-Serif" font-size="11.00">&#45;&#45;&#45;&#45;&#45;&#45;&#45;&#45;&#45;</text>
<text text-anchor="middle" x="60.81" y="-46.49" font-family="Helvetica,sans-Serif" font-size="11.00">Fixed Point</text>
<text text-anchor="middle" x="60.81" y="-21.49" font-family="Helvetica,sans-Serif" font-size="11.00">(a &#45;&gt; a) &#45;&gt; a</text>
</g>
<!-- GrammarPiece&#45;&gt;FixOp -->
<g id="edge3" class="edge">
<title>GrammarPiece&#45;&gt;FixOp</title>
<path fill="none" stroke="#666666" stroke-width="2" d="M497.73,-176.98C488.38,-169.46 477.77,-162.32 466.81,-157.58 401.79,-129.47 378.46,-149.51 308.81,-136.58 235.57,-122.99 215.16,-124.76 145.81,-97.58 136.26,-93.84 126.46,-89.18 117.07,-84.27"/>
<polygon fill="#666666" stroke="#666666" stroke-width="2" points="118.68,-81.16 108.22,-79.49 115.36,-87.32 118.68,-81.16"/>
<text text-anchor="middle" x="330.31" y="-129.38" font-family="Helvetica,sans-Serif" font-size="9.00">recursion</text>
</g>
<!-- GEmpty -->
<g id="node9" class="node">
<title>GEmpty</title>
<path fill="#e1bee7" stroke="#7b1fa2" d="M449.81,-66.79C449.81,-66.79 419.81,-66.79 419.81,-66.79 413.81,-66.79 407.81,-60.79 407.81,-54.79 407.81,-54.79 407.81,-42.79 407.81,-42.79 407.81,-36.79 413.81,-30.79 419.81,-30.79 419.81,-30.79 449.81,-30.79 449.81,-30.79 455.81,-30.79 461.81,-36.79 461.81,-42.79 461.81,-42.79 461.81,-54.79 461.81,-54.79 461.81,-60.79 455.81,-66.79 449.81,-66.79"/>
<text text-anchor="middle" x="434.81" y="-51.99" font-family="Helvetica,sans-Serif" font-size="11.00">eps</text>
<text text-anchor="middle" x="434.81" y="-39.99" font-family="Helvetica,sans-Serif" font-size="11.00">empty</text>
</g>
<!-- GrammarPiece&#45;&gt;GEmpty -->
<g id="edge6" class="edge">
<title>GrammarPiece&#45;&gt;GEmpty</title>
<path fill="none" stroke="#7b1fa2" stroke-dasharray="1,5" d="M511.48,-176.87C493.31,-146.76 467.07,-103.27 450.49,-75.77"/>
<polygon fill="#7b1fa2" stroke="#7b1fa2" points="453.42,-73.86 445.26,-67.11 447.43,-77.48 453.42,-73.86"/>
</g>
<!-- GLit -->
<g id="node10" class="node">
<title>GLit</title>
<path fill="#e1bee7" stroke="#7b1fa2" d="M546.81,-66.79C546.81,-66.79 516.81,-66.79 516.81,-66.79 510.81,-66.79 504.81,-60.79 504.81,-54.79 504.81,-54.79 504.81,-42.79 504.81,-42.79 504.81,-36.79 510.81,-30.79 516.81,-30.79 516.81,-30.79 546.81,-30.79 546.81,-30.79 552.81,-30.79 558.81,-36.79 558.81,-42.79 558.81,-42.79 558.81,-54.79 558.81,-54.79 558.81,-60.79 552.81,-66.79 546.81,-66.79"/>
<text text-anchor="middle" x="531.81" y="-51.99" font-family="Helvetica,sans-Serif" font-size="11.00">&quot;tok&quot;</text>
<text text-anchor="middle" x="531.81" y="-39.99" font-family="Helvetica,sans-Serif" font-size="11.00">literal</text>
</g>
<!-- GrammarPiece&#45;&gt;GLit -->
<g id="edge7" class="edge">
<title>GrammarPiece&#45;&gt;GLit</title>
<path fill="none" stroke="#7b1fa2" stroke-dasharray="1,5" d="M531.81,-176.87C531.81,-147.28 531.81,-104.78 531.81,-77.22"/>
<polygon fill="#7b1fa2" stroke="#7b1fa2" points="535.31,-77.11 531.81,-67.11 528.31,-77.11 535.31,-77.11"/>
</g>
<!-- GNode -->
<g id="node11" class="node">
<title>GNode</title>
<path fill="#e1bee7" stroke="#7b1fa2" d="M754.81,-66.79C754.81,-66.79 724.81,-66.79 724.81,-66.79 718.81,-66.79 712.81,-60.79 712.81,-54.79 712.81,-54.79 712.81,-42.79 712.81,-42.79 712.81,-36.79 718.81,-30.79 724.81,-30.79 724.81,-30.79 754.81,-30.79 754.81,-30.79 760.81,-30.79 766.81,-36.79 766.81,-42.79 766.81,-42.79 766.81,-54.79 766.81,-54.79 766.81,-60.79 760.81,-66.79 754.81,-66.79"/>
<text text-anchor="middle" x="739.81" y="-51.99" font-family="Helvetica,sans-Serif" font-size="11.00">&lt;con&gt;</text>
<text text-anchor="middle" x="739.81" y="-39.99" font-family="Helvetica,sans-Serif" font-size="11.00">node</text>
</g>
<!-- GrammarPiece&#45;&gt;GNode -->
<g id="edge8" class="edge">
<title>GrammarPiece&#45;&gt;GNode</title>
<path fill="none" stroke="#7b1fa2" stroke-dasharray="1,5" d="M574.98,-182.56C607.74,-160.67 653.37,-128.82 690.81,-97.58 699.43,-90.39 708.37,-81.99 716.21,-74.26"/>
<polygon fill="#7b1fa2" stroke="#7b1fa2" points="719.04,-76.37 723.63,-66.82 714.09,-71.43 719.04,-76.37"/>
</g>
<!-- GSeq -->
<g id="node12" class="node">
<title>GSeq</title>
<path fill="#e1bee7" stroke="#7b1fa2" d="M867.31,-66.79C867.31,-66.79 822.31,-66.79 822.31,-66.79 816.31,-66.79 810.31,-60.79 810.31,-54.79 810.31,-54.79 810.31,-42.79 810.31,-42.79 810.31,-36.79 816.31,-30.79 822.31,-30.79 822.31,-30.79 867.31,-30.79 867.31,-30.79 873.31,-30.79 879.31,-36.79 879.31,-42.79 879.31,-42.79 879.31,-54.79 879.31,-54.79 879.31,-60.79 873.31,-66.79 867.31,-66.79"/>
<text text-anchor="middle" x="844.81" y="-51.99" font-family="Helvetica,sans-Serif" font-size="11.00">g1 . g2</text>
<text text-anchor="middle" x="844.81" y="-39.99" font-family="Helvetica,sans-Serif" font-size="11.00">sequence</text>
</g>
<!-- GrammarPiece&#45;&gt;GSeq -->
<g id="edge9" class="edge">
<title>GrammarPiece&#45;&gt;GSeq</title>
<path fill="none" stroke="#7b1fa2" stroke-dasharray="1,5" d="M574.87,-195.83C627.28,-176.94 717.49,-141.35 787.81,-97.58 798.77,-90.76 809.87,-81.97 819.32,-73.8"/>
<polygon fill="#7b1fa2" stroke="#7b1fa2" points="821.68,-76.39 826.84,-67.13 817.03,-71.15 821.68,-76.39"/>
</g>
<!-- GAlt -->
<g id="node13" class="node">
<title>GAlt</title>
<path fill="#e1bee7" stroke="#7b1fa2" d="M229.31,-66.79C229.31,-66.79 176.31,-66.79 176.31,-66.79 170.31,-66.79 164.31,-60.79 164.31,-54.79 164.31,-54.79 164.31,-42.79 164.31,-42.79 164.31,-36.79 170.31,-30.79 176.31,-30.79 176.31,-30.79 229.31,-30.79 229.31,-30.79 235.31,-30.79 241.31,-36.79 241.31,-42.79 241.31,-42.79 241.31,-54.79 241.31,-54.79 241.31,-60.79 235.31,-66.79 229.31,-66.79"/>
<text text-anchor="middle" x="202.81" y="-51.99" font-family="Helvetica,sans-Serif" font-size="11.00">g1 | g2</text>
<text text-anchor="middle" x="202.81" y="-39.99" font-family="Helvetica,sans-Serif" font-size="11.00">alternative</text>
</g>
<!-- GrammarPiece&#45;&gt;GAlt -->
<g id="edge10" class="edge">
<title>GrammarPiece&#45;&gt;GAlt</title>
<path fill="none" stroke="#7b1fa2" stroke-dasharray="1,5" d="M495.81,-177.02C486.82,-169.86 476.86,-162.88 466.81,-157.58 383.21,-113.52 346.67,-141.17 262.81,-97.58 250.5,-91.18 238.28,-82.08 228.11,-73.53"/>
<polygon fill="#7b1fa2" stroke="#7b1fa2" points="230.27,-70.78 220.43,-66.86 225.68,-76.06 230.27,-70.78"/>
</g>
<!-- GStar -->
<g id="node14" class="node">
<title>GStar</title>
<path fill="#e1bee7" stroke="#7b1fa2" d="M352.81,-66.79C352.81,-66.79 296.81,-66.79 296.81,-66.79 290.81,-66.79 284.81,-60.79 284.81,-54.79 284.81,-54.79 284.81,-42.79 284.81,-42.79 284.81,-36.79 290.81,-30.79 296.81,-30.79 296.81,-30.79 352.81,-30.79 352.81,-30.79 358.81,-30.79 364.81,-36.79 364.81,-42.79 364.81,-42.79 364.81,-54.79 364.81,-54.79 364.81,-60.79 358.81,-66.79 352.81,-66.79"/>
<text text-anchor="middle" x="324.81" y="-51.99" font-family="Helvetica,sans-Serif" font-size="11.00">g*</text>
<text text-anchor="middle" x="324.81" y="-39.99" font-family="Helvetica,sans-Serif" font-size="11.00">Kleene star</text>
</g>
<!-- GrammarPiece&#45;&gt;GStar -->
<g id="edge11" class="edge">
<title>GrammarPiece&#45;&gt;GStar</title>
<path fill="none" stroke="#7b1fa2" stroke-dasharray="1,5" d="M491.13,-176.93C483.12,-170.44 474.74,-163.75 466.81,-157.58 431.44,-130.08 421.45,-124.73 385.81,-97.58 375.53,-89.75 364.37,-81.06 354.44,-73.26"/>
<polygon fill="#7b1fa2" stroke="#7b1fa2" points="356.46,-70.4 346.44,-66.96 352.13,-75.9 356.46,-70.4"/>
</g>
<!-- GRec -->
<g id="node15" class="node">
<title>GRec</title>
<path fill="#e1bee7" stroke="#7b1fa2" d="M657.81,-66.79C657.81,-66.79 613.81,-66.79 613.81,-66.79 607.81,-66.79 601.81,-60.79 601.81,-54.79 601.81,-54.79 601.81,-42.79 601.81,-42.79 601.81,-36.79 607.81,-30.79 613.81,-30.79 613.81,-30.79 657.81,-30.79 657.81,-30.79 663.81,-30.79 669.81,-36.79 669.81,-42.79 669.81,-42.79 669.81,-54.79 669.81,-54.79 669.81,-60.79 663.81,-66.79 657.81,-66.79"/>
<text text-anchor="middle" x="635.81" y="-51.99" font-family="Helvetica,sans-Serif" font-size="11.00">mu X.g</text>
<text text-anchor="middle" x="635.81" y="-39.99" font-family="Helvetica,sans-Serif" font-size="11.00">recursion</text>
</g>
<!-- GrammarPiece&#45;&gt;GRec -->
<g id="edge12" class="edge">
<title>GrammarPiece&#45;&gt;GRec</title>
<path fill="none" stroke="#7b1fa2" stroke-dasharray="1,5" d="M553.61,-176.87C573.09,-146.76 601.22,-103.27 619.01,-75.77"/>
<polygon fill="#7b1fa2" stroke="#7b1fa2" points="622.12,-77.4 624.61,-67.11 616.24,-73.6 622.12,-77.4"/>
</g>
<!-- GBind -->
<g id="node16" class="node">
<title>GBind</title>
<path fill="#e1bee7" stroke="#7b1fa2" d="M966.81,-66.79C966.81,-66.79 934.81,-66.79 934.81,-66.79 928.81,-66.79 922.81,-60.79 922.81,-54.79 922.81,-54.79 922.81,-42.79 922.81,-42.79 922.81,-36.79 928.81,-30.79 934.81,-30.79 934.81,-30.79 966.81,-30.79 966.81,-30.79 972.81,-30.79 978.81,-36.79 978.81,-42.79 978.81,-42.79 978.81,-54.79 978.81,-54.79 978.81,-60.79 972.81,-66.79 966.81,-66.79"/>
<text text-anchor="middle" x="950.81" y="-51.99" font-family="Helvetica,sans-Serif" font-size="11.00">x &lt;&#45; g</text>
<text text-anchor="middle" x="950.81" y="-39.99" font-family="Helvetica,sans-Serif" font-size="11.00">binding</text>
</g>
<!-- GrammarPiece&#45;&gt;GBind -->
<g id="edge13" class="edge">
<title>GrammarPiece&#45;&gt;GBind</title>
<path fill="none" stroke="#7b1fa2" stroke-dasharray="1,5" d="M575.08,-204.03C646.82,-191.77 793.14,-160.66 900.81,-97.58 911.28,-91.45 921.28,-82.71 929.54,-74.38"/>
<polygon fill="#7b1fa2" stroke="#7b1fa2" points="932.27,-76.59 936.61,-66.93 927.19,-71.77 932.27,-76.59"/>
</g>
<!-- RulePiece -->
<g id="node4" class="node">
<title>RulePiece</title>
<polygon fill="#bbdefb" stroke="#1565c0" points="1268.31,-246.08 1185.31,-246.08 1181.31,-242.08 1181.31,-177.08 1264.31,-177.08 1268.31,-181.08 1268.31,-246.08"/>
<polyline fill="none" stroke="#1565c0" points="1264.31,-242.08 1181.31,-242.08 "/>
<polyline fill="none" stroke="#1565c0" points="1264.31,-242.08 1264.31,-177.08 "/>
<polyline fill="none" stroke="#1565c0" points="1264.31,-242.08 1268.31,-246.08 "/>
<text text-anchor="middle" x="1224.81" y="-233.28" font-family="Helvetica,sans-Serif" font-size="11.00">Rule</text>
<text text-anchor="middle" x="1224.81" y="-221.28" font-family="Helvetica,sans-Serif" font-size="11.00">&#45;&#45;&#45;&#45;&#45;</text>
<text text-anchor="middle" x="1224.81" y="-209.28" font-family="Helvetica,sans-Serif" font-size="11.00">Rewrite</text>
<text text-anchor="middle" x="1224.81" y="-184.28" font-family="Helvetica,sans-Serif" font-size="11.00">Computation</text>
</g>
<!-- Pattern -->
<g id="node17" class="node">
<title>Pattern</title>
<path fill="#ffe0b2" stroke="#e65100" d="M1309.31,-66.79C1309.31,-66.79 1232.31,-66.79 1232.31,-66.79 1226.31,-66.79 1220.31,-60.79 1220.31,-54.79 1220.31,-54.79 1220.31,-42.79 1220.31,-42.79 1220.31,-36.79 1226.31,-30.79 1232.31,-30.79 1232.31,-30.79 1309.31,-30.79 1309.31,-30.79 1315.31,-30.79 1321.31,-36.79 1321.31,-42.79 1321.31,-42.79 1321.31,-54.79 1321.31,-54.79 1321.31,-60.79 1315.31,-66.79 1309.31,-66.79"/>
<text text-anchor="middle" x="1270.81" y="-51.99" font-family="Helvetica,sans-Serif" font-size="11.00">Pattern</text>
<text text-anchor="middle" x="1270.81" y="-39.99" font-family="Helvetica,sans-Serif" font-size="11.00">$x, (con $a $b)</text>
</g>
<!-- RulePiece&#45;&gt;Pattern -->
<g id="edge14" class="edge">
<title>RulePiece&#45;&gt;Pattern</title>
<path fill="none" stroke="#e65100" stroke-dasharray="1,5" d="M1234.45,-176.87C1242.96,-147.15 1255.19,-104.4 1263.07,-76.86"/>
<polygon fill="#e65100" stroke="#e65100" points="1266.47,-77.68 1265.86,-67.11 1259.74,-75.76 1266.47,-77.68"/>
</g>
<!-- Template -->
<g id="node18" class="node">
<title>Template</title>
<path fill="#ffe0b2" stroke="#e65100" d="M1442.81,-66.79C1442.81,-66.79 1376.81,-66.79 1376.81,-66.79 1370.81,-66.79 1364.81,-60.79 1364.81,-54.79 1364.81,-54.79 1364.81,-42.79 1364.81,-42.79 1364.81,-36.79 1370.81,-30.79 1376.81,-30.79 1376.81,-30.79 1442.81,-30.79 1442.81,-30.79 1448.81,-30.79 1454.81,-36.79 1454.81,-42.79 1454.81,-42.79 1454.81,-54.79 1454.81,-54.79 1454.81,-60.79 1448.81,-66.79 1442.81,-66.79"/>
<text text-anchor="middle" x="1409.81" y="-51.99" font-family="Helvetica,sans-Serif" font-size="11.00">Template</text>
<text text-anchor="middle" x="1409.81" y="-39.99" font-family="Helvetica,sans-Serif" font-size="11.00">[$x := $a] $b</text>
</g>
<!-- RulePiece&#45;&gt;Template -->
<g id="edge15" class="edge">
<title>RulePiece&#45;&gt;Template</title>
<path fill="none" stroke="#e65100" stroke-dasharray="1,5" d="M1263.59,-176.87C1299,-146.1 1350.47,-101.37 1381.95,-74"/>
<polygon fill="#e65100" stroke="#e65100" points="1384.64,-76.31 1389.89,-67.11 1380.05,-71.02 1384.64,-76.31"/>
</g>
<!-- Rewrite -->
<g id="node19" class="node">
<title>Rewrite</title>
<path fill="#ffe0b2" stroke="#e65100" d="M1164.81,-66.79C1164.81,-66.79 1132.81,-66.79 1132.81,-66.79 1126.81,-66.79 1120.81,-60.79 1120.81,-54.79 1120.81,-54.79 1120.81,-42.79 1120.81,-42.79 1120.81,-36.79 1126.81,-30.79 1132.81,-30.79 1132.81,-30.79 1164.81,-30.79 1164.81,-30.79 1170.81,-30.79 1176.81,-36.79 1176.81,-42.79 1176.81,-42.79 1176.81,-54.79 1176.81,-54.79 1176.81,-60.79 1170.81,-66.79 1164.81,-66.79"/>
<text text-anchor="middle" x="1148.81" y="-51.99" font-family="Helvetica,sans-Serif" font-size="11.00">p ~&gt; t</text>
<text text-anchor="middle" x="1148.81" y="-39.99" font-family="Helvetica,sans-Serif" font-size="11.00">rewrite</text>
</g>
<!-- RulePiece&#45;&gt;Rewrite -->
<g id="edge16" class="edge">
<title>RulePiece&#45;&gt;Rewrite</title>
<path fill="none" stroke="#e65100" stroke-dasharray="1,5" d="M1208.88,-176.87C1194.77,-147.02 1174.44,-104.02 1161.43,-76.49"/>
<polygon fill="#e65100" stroke="#e65100" points="1164.43,-74.65 1157,-67.11 1158.1,-77.64 1164.43,-74.65"/>
</g>
<!-- Guard -->
<g id="node20" class="node">
<title>Guard</title>
<path fill="#ffe0b2" stroke="#e65100" d="M1065.81,-66.79C1065.81,-66.79 1033.81,-66.79 1033.81,-66.79 1027.81,-66.79 1021.81,-60.79 1021.81,-54.79 1021.81,-54.79 1021.81,-42.79 1021.81,-42.79 1021.81,-36.79 1027.81,-30.79 1033.81,-30.79 1033.81,-30.79 1065.81,-30.79 1065.81,-30.79 1071.81,-30.79 1077.81,-36.79 1077.81,-42.79 1077.81,-42.79 1077.81,-54.79 1077.81,-54.79 1077.81,-60.79 1071.81,-66.79 1065.81,-66.79"/>
<text text-anchor="middle" x="1049.81" y="-51.99" font-family="Helvetica,sans-Serif" font-size="11.00">when g</text>
<text text-anchor="middle" x="1049.81" y="-39.99" font-family="Helvetica,sans-Serif" font-size="11.00">guard</text>
</g>
<!-- RulePiece&#45;&gt;Guard -->
<g id="edge17" class="edge">
<title>RulePiece&#45;&gt;Guard</title>
<path fill="none" stroke="#e65100" stroke-dasharray="1,5" d="M1186.39,-176.87C1161.24,-154.62 1127.78,-124.68 1098.81,-97.58 1090.87,-90.15 1082.35,-81.93 1074.67,-74.43"/>
<polygon fill="#e65100" stroke="#e65100" points="1076.92,-71.73 1067.33,-67.22 1072.01,-76.73 1076.92,-71.73"/>
</g>
<!-- LangPiece -->
<g id="node5" class="node">
<title>LangPiece</title>
<polygon fill="#bbdefb" stroke="#1565c0" points="1765.81,-246.08 1677.81,-246.08 1673.81,-242.08 1673.81,-177.08 1761.81,-177.08 1765.81,-181.08 1765.81,-246.08"/>
<polyline fill="none" stroke="#1565c0" points="1761.81,-242.08 1673.81,-242.08 "/>
<polyline fill="none" stroke="#1565c0" points="1761.81,-242.08 1761.81,-177.08 "/>
<polyline fill="none" stroke="#1565c0" points="1761.81,-242.08 1765.81,-246.08 "/>
<text text-anchor="middle" x="1719.81" y="-233.28" font-family="Helvetica,sans-Serif" font-size="11.00">Lang</text>
<text text-anchor="middle" x="1719.81" y="-221.28" font-family="Helvetica,sans-Serif" font-size="11.00">&#45;&#45;&#45;&#45;&#45;</text>
<text text-anchor="middle" x="1719.81" y="-209.28" font-family="Helvetica,sans-Serif" font-size="11.00">Initial Algebra</text>
<text text-anchor="middle" x="1719.81" y="-184.28" font-family="Helvetica,sans-Serif" font-size="11.00">mu(LangF)</text>
</g>
<!-- PushoutOp -->
<g id="node6" class="node">
<title>PushoutOp</title>
<ellipse fill="#c8e6c9" stroke="#2e7d32" cx="1589.81" cy="-48.79" rx="91.85" ry="48.58"/>
<text text-anchor="middle" x="1589.81" y="-70.49" font-family="Helvetica,sans-Serif" font-size="11.00">Pushout (+)</text>
<text text-anchor="middle" x="1589.81" y="-58.49" font-family="Helvetica,sans-Serif" font-size="11.00">&#45;&#45;&#45;&#45;&#45;&#45;&#45;&#45;&#45;</text>
<text text-anchor="middle" x="1589.81" y="-46.49" font-family="Helvetica,sans-Serif" font-size="11.00">Colimit</text>
<text text-anchor="middle" x="1589.81" y="-21.49" font-family="Helvetica,sans-Serif" font-size="11.00">Lang x Lang &#45;&gt; Lang</text>
</g>
<!-- LangPiece&#45;&gt;PushoutOp -->
<g id="edge1" class="edge">
<title>LangPiece&#45;&gt;PushoutOp</title>
<path fill="none" stroke="#666666" stroke-width="2" d="M1673.52,-193.52C1647.84,-181.58 1617.75,-163 1600.81,-136.58 1595.34,-128.05 1591.97,-118.06 1589.98,-107.96"/>
<polygon fill="#666666" stroke="#666666" stroke-width="2" points="1593.41,-107.23 1588.43,-97.88 1586.49,-108.29 1593.41,-107.23"/>
<text text-anchor="middle" x="1613.31" y="-129.38" font-family="Helvetica,sans-Serif" font-size="9.00">input</text>
</g>
<!-- FoldOp -->
<g id="node7" class="node">
<title>FoldOp</title>
<ellipse fill="#c8e6c9" stroke="#2e7d32" cx="1843.81" cy="-48.79" rx="119.5" ry="48.58"/>
<text text-anchor="middle" x="1843.81" y="-70.49" font-family="Helvetica,sans-Serif" font-size="11.00">Fold</text>
<text text-anchor="middle" x="1843.81" y="-58.49" font-family="Helvetica,sans-Serif" font-size="11.00">&#45;&#45;&#45;&#45;&#45;&#45;&#45;&#45;&#45;</text>
<text text-anchor="middle" x="1843.81" y="-46.49" font-family="Helvetica,sans-Serif" font-size="11.00">Catamorphism</text>
<text text-anchor="middle" x="1843.81" y="-21.49" font-family="Helvetica,sans-Serif" font-size="11.00">(LangF a &#45;&gt; a) &#45;&gt; Lang &#45;&gt; a</text>
</g>
<!-- LangPiece&#45;&gt;FoldOp -->
<g id="edge2" class="edge">
<title>LangPiece&#45;&gt;FoldOp</title>
<path fill="none" stroke="#666666" stroke-width="2" d="M1731.78,-176.98C1738.39,-160.89 1747.55,-141.85 1758.81,-126.58 1765.73,-117.2 1773.93,-108.09 1782.47,-99.62"/>
<polygon fill="#666666" stroke="#666666" stroke-width="2" points="1784.92,-102.12 1789.7,-92.67 1780.07,-97.08 1784.92,-102.12"/>
<text text-anchor="middle" x="1771.31" y="-129.38" font-family="Helvetica,sans-Serif" font-size="9.00">input</text>
</g>
<!-- PushoutOp&#45;&gt;LangPiece -->
<g id="edge4" class="edge">
<title>PushoutOp&#45;&gt;LangPiece</title>
<path fill="none" stroke="#666666" stroke-dasharray="5,2" d="M1625.43,-93.84C1644.37,-117.27 1667.53,-145.92 1686.17,-168.97"/>
<polygon fill="#666666" stroke="#666666" points="1683.55,-171.3 1692.56,-176.87 1688.99,-166.9 1683.55,-171.3"/>
<text text-anchor="middle" x="1673.31" y="-129.38" font-family="Helvetica,sans-Serif" font-size="9.00">output</text>
</g>
<!-- FoldOp&#45;&gt;LangPiece -->
<g id="edge5" class="edge">
<title>FoldOp&#45;&gt;LangPiece</title>
<path fill="none" stroke="#666666" stroke-dasharray="5,2" d="M1811.8,-104.98C1804.92,-115.73 1797.42,-126.71 1789.81,-136.58 1779.12,-150.44 1766.23,-164.65 1754.44,-176.86"/>
<polygon fill="#666666" stroke="#666666" points="1814.81,-106.77 1817.17,-96.44 1808.88,-103.04 1814.81,-106.77"/>
<text text-anchor="middle" x="1806.81" y="-129.38" font-family="Helvetica,sans-Serif" font-size="9.00">from</text>
</g>
<!-- VarEx -->
<g id="node21" class="node">
<title>VarEx</title>
<polygon fill="#ffcdd2" stroke="#c62828" points="1952.31,-233.58 1885.31,-233.58 1885.31,-229.58 1881.31,-229.58 1881.31,-225.58 1885.31,-225.58 1885.31,-197.58 1881.31,-197.58 1881.31,-193.58 1885.31,-193.58 1885.31,-189.58 1952.31,-189.58 1952.31,-233.58"/>
<polyline fill="none" stroke="#c62828" points="1885.31,-229.58 1889.31,-229.58 1889.31,-225.58 1885.31,-225.58 "/>
<polyline fill="none" stroke="#c62828" points="1885.31,-197.58 1889.31,-197.58 1889.31,-193.58 1885.31,-193.58 "/>
<text text-anchor="middle" x="1918.81" y="-220.78" font-family="Helvetica,sans-Serif" font-size="11.00">Var</text>
<text text-anchor="middle" x="1918.81" y="-208.78" font-family="Helvetica,sans-Serif" font-size="11.00">&#45;&#45;&#45;</text>
<text text-anchor="middle" x="1918.81" y="-196.78" font-family="Helvetica,sans-Serif" font-size="11.00">variables</text>
</g>
<!-- AppLamEx -->
<g id="node22" class="node">
<title>AppLamEx</title>
<polygon fill="#ffcdd2" stroke="#c62828" points="2318.31,-233.58 2253.31,-233.58 2253.31,-229.58 2249.31,-229.58 2249.31,-225.58 2253.31,-225.58 2253.31,-197.58 2249.31,-197.58 2249.31,-193.58 2253.31,-193.58 2253.31,-189.58 2318.31,-189.58 2318.31,-233.58"/>
<polyline fill="none" stroke="#c62828" points="2253.31,-229.58 2257.31,-229.58 2257.31,-225.58 2253.31,-225.58 "/>
<polyline fill="none" stroke="#c62828" points="2253.31,-197.58 2257.31,-197.58 2257.31,-193.58 2253.31,-193.58 "/>
<text text-anchor="middle" x="2285.81" y="-220.78" font-family="Helvetica,sans-Serif" font-size="11.00">AppLam</text>
<text text-anchor="middle" x="2285.81" y="-208.78" font-family="Helvetica,sans-Serif" font-size="11.00">&#45;&#45;&#45;</text>
<text text-anchor="middle" x="2285.81" y="-196.78" font-family="Helvetica,sans-Serif" font-size="11.00">lam, app</text>
</g>
<!-- VarEx&#45;&gt;AppLamEx -->
<g id="edge18" class="edge">
<title>VarEx&#45;&gt;AppLamEx</title>
<path fill="none" stroke="#c62828" stroke-width="2" d="M1938.14,-233.68C1959.81,-256.52 1997.33,-290.55 2038.31,-303.08 2074.86,-314.25 2173.76,-314.25 2210.31,-303.08 2239.05,-294.3 2259.55,-265.81 2271.87,-242.92"/>
<polygon fill="#c62828" stroke="#c62828" stroke-width="2" points="2275.07,-244.35 2276.5,-233.85 2268.84,-241.17 2275.07,-244.35"/>
</g>
<!-- ArrowEx -->
<g id="node23" class="node">
<title>ArrowEx</title>
<polygon fill="#ffcdd2" stroke="#c62828" points="2091.81,-233.58 2037.81,-233.58 2037.81,-229.58 2033.81,-229.58 2033.81,-225.58 2037.81,-225.58 2037.81,-197.58 2033.81,-197.58 2033.81,-193.58 2037.81,-193.58 2037.81,-189.58 2091.81,-189.58 2091.81,-233.58"/>
<polyline fill="none" stroke="#c62828" points="2037.81,-229.58 2041.81,-229.58 2041.81,-225.58 2037.81,-225.58 "/>
<polyline fill="none" stroke="#c62828" points="2037.81,-197.58 2041.81,-197.58 2041.81,-193.58 2037.81,-193.58 "/>
<text text-anchor="middle" x="2064.81" y="-220.78" font-family="Helvetica,sans-Serif" font-size="11.00">Arrow</text>
<text text-anchor="middle" x="2064.81" y="-208.78" font-family="Helvetica,sans-Serif" font-size="11.00">&#45;&#45;&#45;</text>
<text text-anchor="middle" x="2064.81" y="-196.78" font-family="Helvetica,sans-Serif" font-size="11.00">A &#45;&gt; B</text>
</g>
<!-- VarEx&#45;&gt;ArrowEx -->
<g id="edge19" class="edge">
<title>VarEx&#45;&gt;ArrowEx</title>
<path fill="none" stroke="#c62828" stroke-width="2" d="M1952.46,-211.58C1977.4,-211.58 2002.35,-211.58 2027.29,-211.58"/>
<polygon fill="#c62828" stroke="#c62828" stroke-width="2" points="2027.6,-215.08 2037.6,-211.58 2027.6,-208.08 2027.6,-215.08"/>
</g>
<!-- PolyEx -->
<g id="node24" class="node">
<title>PolyEx</title>
<polygon fill="#ffcdd2" stroke="#c62828" points="2210.31,-233.58 2135.31,-233.58 2135.31,-229.58 2131.31,-229.58 2131.31,-225.58 2135.31,-225.58 2135.31,-197.58 2131.31,-197.58 2131.31,-193.58 2135.31,-193.58 2135.31,-189.58 2210.31,-189.58 2210.31,-233.58"/>
<polyline fill="none" stroke="#c62828" points="2135.31,-229.58 2139.31,-229.58 2139.31,-225.58 2135.31,-225.58 "/>
<polyline fill="none" stroke="#c62828" points="2135.31,-197.58 2139.31,-197.58 2139.31,-193.58 2135.31,-193.58 "/>
<text text-anchor="middle" x="2172.81" y="-220.78" font-family="Helvetica,sans-Serif" font-size="11.00">Poly</text>
<text text-anchor="middle" x="2172.81" y="-208.78" font-family="Helvetica,sans-Serif" font-size="11.00">&#45;&#45;&#45;</text>
<text text-anchor="middle" x="2172.81" y="-196.78" font-family="Helvetica,sans-Serif" font-size="11.00">forall, Lam</text>
</g>
<!-- VarEx&#45;&gt;PolyEx -->
<g id="edge20" class="edge">
<title>VarEx&#45;&gt;PolyEx</title>
<path fill="none" stroke="#c62828" stroke-width="2" d="M1938.14,-233.68C1959.81,-256.52 1997.33,-290.55 2038.31,-303.08 2070.99,-313.07 2088.93,-312 2113.81,-288.58 2128.47,-274.78 2142.3,-257.08 2152.89,-242.13"/>
<polygon fill="#c62828" stroke="#c62828" stroke-width="2" points="2155.91,-243.91 2158.72,-233.7 2150.15,-239.93 2155.91,-243.91"/>
</g>
<!-- DepEx -->
<g id="node25" class="node">
<title>DepEx</title>
<polygon fill="#ffcdd2" stroke="#c62828" points="2429.81,-233.58 2361.81,-233.58 2361.81,-229.58 2357.81,-229.58 2357.81,-225.58 2361.81,-225.58 2361.81,-197.58 2357.81,-197.58 2357.81,-193.58 2361.81,-193.58 2361.81,-189.58 2429.81,-189.58 2429.81,-233.58"/>
<polyline fill="none" stroke="#c62828" points="2361.81,-229.58 2365.81,-229.58 2365.81,-225.58 2361.81,-225.58 "/>
<polyline fill="none" stroke="#c62828" points="2361.81,-197.58 2365.81,-197.58 2365.81,-193.58 2361.81,-193.58 "/>
<text text-anchor="middle" x="2395.81" y="-220.78" font-family="Helvetica,sans-Serif" font-size="11.00">Dep</text>
<text text-anchor="middle" x="2395.81" y="-208.78" font-family="Helvetica,sans-Serif" font-size="11.00">&#45;&#45;&#45;</text>
<text text-anchor="middle" x="2395.81" y="-196.78" font-family="Helvetica,sans-Serif" font-size="11.00">Pi, Sigma</text>
</g>
<!-- VarEx&#45;&gt;DepEx -->
<g id="edge21" class="edge">
<title>VarEx&#45;&gt;DepEx</title>
<path fill="none" stroke="#c62828" stroke-width="2" d="M1938.14,-233.68C1959.81,-256.52 1997.33,-290.55 2038.31,-303.08 2097.82,-321.27 2258.81,-321.27 2318.31,-303.08 2347.36,-294.2 2368.47,-265.72 2381.25,-242.87"/>
<polygon fill="#c62828" stroke="#c62828" stroke-width="2" points="2384.47,-244.28 2386.06,-233.81 2378.28,-241 2384.47,-244.28"/>
</g>
<!-- STLCEx -->
<g id="node27" class="node">
<title>STLCEx</title>
<polygon fill="#ef9a9a" stroke="#c62828" points="2116.81,-70.79 2010.81,-70.79 2006.81,-66.79 2006.81,-26.79 2112.81,-26.79 2116.81,-30.79 2116.81,-70.79"/>
<polyline fill="none" stroke="#c62828" points="2112.81,-66.79 2006.81,-66.79 "/>
<polyline fill="none" stroke="#c62828" points="2112.81,-66.79 2112.81,-26.79 "/>
<polyline fill="none" stroke="#c62828" points="2112.81,-66.79 2116.81,-70.79 "/>
<text text-anchor="middle" x="2061.81" y="-57.99" font-family="Helvetica,sans-Serif" font-size="11.00">STLC</text>
<text text-anchor="middle" x="2061.81" y="-45.99" font-family="Helvetica,sans-Serif" font-size="11.00">=======</text>
<text text-anchor="middle" x="2061.81" y="-33.99" font-family="Helvetica,sans-Serif" font-size="11.00">AppLam + Arrow</text>
</g>
<!-- AppLamEx&#45;&gt;STLCEx -->
<g id="edge22" class="edge">
<title>AppLamEx&#45;&gt;STLCEx</title>
<path fill="none" stroke="#c62828" stroke-width="2" d="M2266.24,-189.38C2256.38,-179.23 2243.96,-167.21 2231.81,-157.58 2192.73,-126.58 2144.38,-96.64 2109.24,-76.21"/>
<polygon fill="#c62828" stroke="#c62828" stroke-width="2" points="2110.57,-72.94 2100.16,-70.97 2107.07,-79 2110.57,-72.94"/>
</g>
<!-- CoCEx -->
<g id="node29" class="node">
<title>CoCEx</title>
<polygon fill="#ef9a9a" stroke="#c62828" points="2472.81,-70.79 2332.81,-70.79 2328.81,-66.79 2328.81,-26.79 2468.81,-26.79 2472.81,-30.79 2472.81,-70.79"/>
<polyline fill="none" stroke="#c62828" points="2468.81,-66.79 2328.81,-66.79 "/>
<polyline fill="none" stroke="#c62828" points="2468.81,-66.79 2468.81,-26.79 "/>
<polyline fill="none" stroke="#c62828" points="2468.81,-66.79 2472.81,-70.79 "/>
<text text-anchor="middle" x="2400.81" y="-57.99" font-family="Helvetica,sans-Serif" font-size="11.00">CoC</text>
<text text-anchor="middle" x="2400.81" y="-45.99" font-family="Helvetica,sans-Serif" font-size="11.00">=======</text>
<text text-anchor="middle" x="2400.81" y="-33.99" font-family="Helvetica,sans-Serif" font-size="11.00">AppLam + Dep + Sorts</text>
</g>
<!-- AppLamEx&#45;&gt;CoCEx -->
<g id="edge26" class="edge">
<title>AppLamEx&#45;&gt;CoCEx</title>
<path fill="none" stroke="#c62828" stroke-width="2" d="M2300.85,-189.56C2320.99,-161.39 2356.85,-111.26 2379.7,-79.31"/>
<polygon fill="#c62828" stroke="#c62828" stroke-width="2" points="2382.8,-80.99 2385.77,-70.82 2377.11,-76.91 2382.8,-80.99"/>
</g>
<!-- ArrowEx&#45;&gt;STLCEx -->
<g id="edge23" class="edge">
<title>ArrowEx&#45;&gt;STLCEx</title>
<path fill="none" stroke="#c62828" stroke-width="2" d="M2064.42,-189.56C2063.9,-161.87 2062.99,-112.96 2062.39,-80.96"/>
<polygon fill="#c62828" stroke="#c62828" stroke-width="2" points="2065.89,-80.75 2062.2,-70.82 2058.89,-80.88 2065.89,-80.75"/>
</g>
<!-- SystemFEx -->
<g id="node28" class="node">
<title>SystemFEx</title>
<polygon fill="#ef9a9a" stroke="#c62828" points="2285.31,-70.79 2206.31,-70.79 2202.31,-66.79 2202.31,-26.79 2281.31,-26.79 2285.31,-30.79 2285.31,-70.79"/>
<polyline fill="none" stroke="#c62828" points="2281.31,-66.79 2202.31,-66.79 "/>
<polyline fill="none" stroke="#c62828" points="2281.31,-66.79 2281.31,-26.79 "/>
<polyline fill="none" stroke="#c62828" points="2281.31,-66.79 2285.31,-70.79 "/>
<text text-anchor="middle" x="2243.81" y="-57.99" font-family="Helvetica,sans-Serif" font-size="11.00">SystemF</text>
<text text-anchor="middle" x="2243.81" y="-45.99" font-family="Helvetica,sans-Serif" font-size="11.00">=======</text>
<text text-anchor="middle" x="2243.81" y="-33.99" font-family="Helvetica,sans-Serif" font-size="11.00">STLC + Poly</text>
</g>
<!-- PolyEx&#45;&gt;SystemFEx -->
<g id="edge25" class="edge">
<title>PolyEx&#45;&gt;SystemFEx</title>
<path fill="none" stroke="#c62828" stroke-width="2" d="M2182.09,-189.56C2194.42,-161.63 2216.29,-112.11 2230.41,-80.13"/>
<polygon fill="#c62828" stroke="#c62828" stroke-width="2" points="2233.69,-81.38 2234.53,-70.82 2227.29,-78.55 2233.69,-81.38"/>
</g>
<!-- DepEx&#45;&gt;CoCEx -->
<g id="edge27" class="edge">
<title>DepEx&#45;&gt;CoCEx</title>
<path fill="none" stroke="#c62828" stroke-width="2" d="M2396.46,-189.56C2397.33,-161.87 2398.85,-112.96 2399.84,-80.96"/>
<polygon fill="#c62828" stroke="#c62828" stroke-width="2" points="2403.34,-80.92 2400.16,-70.82 2396.35,-80.7 2403.34,-80.92"/>
</g>
<!-- SortsEx -->
<g id="node26" class="node">
<title>SortsEx</title>
<polygon fill="#ffcdd2" stroke="#c62828" points="2526.81,-233.58 2472.81,-233.58 2472.81,-229.58 2468.81,-229.58 2468.81,-225.58 2472.81,-225.58 2472.81,-197.58 2468.81,-197.58 2468.81,-193.58 2472.81,-193.58 2472.81,-189.58 2526.81,-189.58 2526.81,-233.58"/>
<polyline fill="none" stroke="#c62828" points="2472.81,-229.58 2476.81,-229.58 2476.81,-225.58 2472.81,-225.58 "/>
<polyline fill="none" stroke="#c62828" points="2472.81,-197.58 2476.81,-197.58 2476.81,-193.58 2472.81,-193.58 "/>
<text text-anchor="middle" x="2499.81" y="-220.78" font-family="Helvetica,sans-Serif" font-size="11.00">Sorts</text>
<text text-anchor="middle" x="2499.81" y="-208.78" font-family="Helvetica,sans-Serif" font-size="11.00">&#45;&#45;&#45;</text>
<text text-anchor="middle" x="2499.81" y="-196.78" font-family="Helvetica,sans-Serif" font-size="11.00">*, box</text>
</g>
<!-- SortsEx&#45;&gt;CoCEx -->
<g id="edge28" class="edge">
<title>SortsEx&#45;&gt;CoCEx</title>
<path fill="none" stroke="#c62828" stroke-width="2" d="M2486.87,-189.56C2469.6,-161.51 2438.92,-111.68 2419.24,-79.72"/>
<polygon fill="#c62828" stroke="#c62828" stroke-width="2" points="2421.98,-77.5 2413.76,-70.82 2416.02,-81.17 2421.98,-77.5"/>
</g>
<!-- STLCEx&#45;&gt;SystemFEx -->
<g id="edge24" class="edge">
<title>STLCEx&#45;&gt;SystemFEx</title>
<path fill="none" stroke="#c62828" stroke-width="2" d="M2116.91,-48.79C2141.89,-48.79 2166.87,-48.79 2191.85,-48.79"/>
<polygon fill="#c62828" stroke="#c62828" stroke-width="2" points="2192.17,-52.29 2202.17,-48.79 2192.17,-45.29 2192.17,-52.29"/>
</g>
<!-- CICEx -->
<g id="node30" class="node">
<title>CICEx</title>
<polygon fill="#ef9a9a" stroke="#c62828" points="2663.31,-70.79 2562.31,-70.79 2558.31,-66.79 2558.31,-26.79 2659.31,-26.79 2663.31,-30.79 2663.31,-70.79"/>
<polyline fill="none" stroke="#c62828" points="2659.31,-66.79 2558.31,-66.79 "/>
<polyline fill="none" stroke="#c62828" points="2659.31,-66.79 2659.31,-26.79 "/>
<polyline fill="none" stroke="#c62828" points="2659.31,-66.79 2663.31,-70.79 "/>
<text text-anchor="middle" x="2610.81" y="-57.99" font-family="Helvetica,sans-Serif" font-size="11.00">CIC</text>
<text text-anchor="middle" x="2610.81" y="-45.99" font-family="Helvetica,sans-Serif" font-size="11.00">=======</text>
<text text-anchor="middle" x="2610.81" y="-33.99" font-family="Helvetica,sans-Serif" font-size="11.00">CoC + Inductive</text>
</g>
<!-- CoCEx&#45;&gt;CICEx -->
<g id="edge29" class="edge">
<title>CoCEx&#45;&gt;CICEx</title>
<path fill="none" stroke="#c62828" stroke-width="2" d="M2473,-48.79C2497.92,-48.79 2522.84,-48.79 2547.76,-48.79"/>
<polygon fill="#c62828" stroke="#c62828" stroke-width="2" points="2548.05,-52.29 2558.05,-48.79 2548.05,-45.29 2548.05,-52.29"/>
</g>
<!-- equation -->
<g id="node31" class="node">
<title>equation</title>
<text text-anchor="start" x="2604.81" y="-231.78" font-family="Helvetica,sans-Serif" font-weight="bold" font-size="16.00">Lang = μX. Graph + Grammar[X] + Rule[X]</text>
<text text-anchor="start" x="2613.81" y="-193.78" font-family="Helvetica,sans-Serif" font-weight="bold" font-size="11.00">L1 ⊔ L2</text>
<text text-anchor="start" x="2614.31" y="-182.78" font-family="Helvetica,sans-Serif" font-size="11.00">pushout</text>
<text text-anchor="start" x="2709.31" y="-188.78" font-family="Helvetica,sans-Serif" font-weight="bold" font-size="11.00">=</text>
<text text-anchor="start" x="2750.31" y="-193.78" font-family="Helvetica,sans-Serif" font-weight="bold" font-size="11.00">poGraph(G1, G2)</text>
<text text-anchor="start" x="2765.81" y="-182.78" font-family="Helvetica,sans-Serif" font-size="11.00">merge nodes</text>
<text text-anchor="start" x="2875.81" y="-188.78" font-family="Helvetica,sans-Serif" font-weight="bold" font-size="11.00">+</text>
<text text-anchor="start" x="2906.31" y="-193.78" font-family="Helvetica,sans-Serif" font-weight="bold" font-size="11.00">poLang(L1, L2)</text>
<text text-anchor="start" x="2904.31" y="-182.78" font-family="Helvetica,sans-Serif" font-size="11.00">merge grammars</text>
</g>
</g>
</svg>
