<?xml version="1.0" encoding="UTF-8" standalone="no"?>
<!DOCTYPE svg PUBLIC "-//W3C//DTD SVG 1.1//EN"
 "http://www.w3.org/Graphics/SVG/1.1/DTD/svg11.dtd">
<!-- Generated by graphviz version 2.42.4 (0)
 -->
<!-- Title: CubicalModules Pages: 1 -->
<svg width="1265pt" height="498pt"
 viewBox="0.00 0.00 1264.79 498.00" xmlns="http://www.w3.org/2000/svg" xmlns:xlink="http://www.w3.org/1999/xlink">
<g id="graph0" class="graph" transform="scale(1 1) rotate(0) translate(4 494)">
<title>CubicalModules</title>
<polygon fill="white" stroke="transparent" points="-4,4 -4,-494 1260.79,-494 1260.79,4 -4,4"/>
<g id="clust1" class="cluster">
<title>cluster_foundation</title>
<polygon fill="none" stroke="#cccccc" stroke-dasharray="5,2" points="499.07,-407 499.07,-482 596.07,-482 596.07,-407 499.07,-407"/>
<text text-anchor="middle" x="547.57" y="-414.8" font-family="Times,serif" font-size="14.00">Foundation</text>
</g>
<g id="clust2" class="cluster">
<title>cluster_core_ext</title>
<polygon fill="none" stroke="#cccccc" stroke-dasharray="5,2" points="286.07,-324 286.07,-399 1139.07,-399 1139.07,-324 286.07,-324"/>
<text text-anchor="middle" x="712.57" y="-331.8" font-family="Times,serif" font-size="14.00">Core Extensions</text>
</g>
<g id="clust3" class="cluster">
<title>cluster_mid</title>
<polygon fill="none" stroke="#cccccc" stroke-dasharray="5,2" points="261.07,-241 261.07,-316 625.07,-316 625.07,-241 261.07,-241"/>
<text text-anchor="middle" x="443.07" y="-248.8" font-family="Times,serif" font-size="14.00">Operations</text>
</g>
<g id="clust4" class="cluster">
<title>cluster_kan</title>
<polygon fill="none" stroke="#cccccc" stroke-dasharray="5,2" points="96.07,-83 96.07,-233 242.07,-233 242.07,-83 96.07,-83"/>
<text text-anchor="middle" x="169.07" y="-90.8" font-family="Times,serif" font-size="14.00">Kan Operations</text>
</g>
<g id="clust5" class="cluster">
<title>cluster_typing</title>
<polygon fill="none" stroke="#cccccc" stroke-dasharray="5,2" points="585.07,-158 585.07,-233 961.07,-233 961.07,-158 585.07,-158"/>
<text text-anchor="middle" x="773.07" y="-165.8" font-family="Times,serif" font-size="14.00">Type System</text>
</g>
<g id="clust6" class="cluster">
<title>cluster_top</title>
<polygon fill="none" stroke="#cccccc" stroke-dasharray="5,2" points="969.07,-8 969.07,-233 1069.07,-233 1069.07,-8 969.07,-8"/>
<text text-anchor="middle" x="1019.07" y="-15.8" font-family="Times,serif" font-size="14.00">Application</text>
</g>
<!-- Core -->
<g id="node1" class="node">
<title>Core</title>
<path fill="#e8f5e9" stroke="black" d="M562.07,-474C562.07,-474 532.07,-474 532.07,-474 526.07,-474 520.07,-468 520.07,-462 520.07,-462 520.07,-450 520.07,-450 520.07,-444 526.07,-438 532.07,-438 532.07,-438 562.07,-438 562.07,-438 568.07,-438 574.07,-444 574.07,-450 574.07,-450 574.07,-462 574.07,-462 574.07,-468 568.07,-474 562.07,-474"/>
<text text-anchor="middle" x="547.07" y="-452.3" font-family="Helvetica,sans-Serif" font-size="14.00">Core</text>
</g>
<!-- Quote -->
<g id="node2" class="node">
<title>Quote</title>
<path fill="#e3f2fd" stroke="black" d="M440.57,-391C440.57,-391 405.57,-391 405.57,-391 399.57,-391 393.57,-385 393.57,-379 393.57,-379 393.57,-367 393.57,-367 393.57,-361 399.57,-355 405.57,-355 405.57,-355 440.57,-355 440.57,-355 446.57,-355 452.57,-361 452.57,-367 452.57,-367 452.57,-379 452.57,-379 452.57,-385 446.57,-391 440.57,-391"/>
<text text-anchor="middle" x="423.07" y="-369.3" font-family="Helvetica,sans-Serif" font-size="14.00">Quote</text>
</g>
<!-- Quote&#45;&gt;Core -->
<g id="edge1" class="edge">
<title>Quote&#45;&gt;Core</title>
<path fill="none" stroke="#666666" d="M449.37,-391.18C467.7,-403.15 492.34,-419.25 512.3,-432.29"/>
<polygon fill="#666666" stroke="#666666" points="510.52,-435.31 520.81,-437.85 514.35,-429.45 510.52,-435.31"/>
</g>
<!-- Visitor -->
<g id="node3" class="node">
<title>Visitor</title>
<path fill="#e3f2fd" stroke="black" d="M607.07,-391C607.07,-391 571.07,-391 571.07,-391 565.07,-391 559.07,-385 559.07,-379 559.07,-379 559.07,-367 559.07,-367 559.07,-361 565.07,-355 571.07,-355 571.07,-355 607.07,-355 607.07,-355 613.07,-355 619.07,-361 619.07,-367 619.07,-367 619.07,-379 619.07,-379 619.07,-385 613.07,-391 607.07,-391"/>
<text text-anchor="middle" x="589.07" y="-369.3" font-family="Helvetica,sans-Serif" font-size="14.00">Visitor</text>
</g>
<!-- Visitor&#45;&gt;Core -->
<g id="edge2" class="edge">
<title>Visitor&#45;&gt;Core</title>
<path fill="none" stroke="#666666" d="M580.16,-391.18C574.48,-402.13 567.01,-416.54 560.61,-428.89"/>
<polygon fill="#666666" stroke="#666666" points="557.46,-427.36 555.96,-437.85 563.67,-430.58 557.46,-427.36"/>
</g>
<!-- Cofibration -->
<g id="node4" class="node">
<title>Cofibration</title>
<path fill="#e3f2fd" stroke="black" d="M718.57,-391C718.57,-391 649.57,-391 649.57,-391 643.57,-391 637.57,-385 637.57,-379 637.57,-379 637.57,-367 637.57,-367 637.57,-361 643.57,-355 649.57,-355 649.57,-355 718.57,-355 718.57,-355 724.57,-355 730.57,-361 730.57,-367 730.57,-367 730.57,-379 730.57,-379 730.57,-385 724.57,-391 718.57,-391"/>
<text text-anchor="middle" x="684.07" y="-369.3" font-family="Helvetica,sans-Serif" font-size="14.00">Cofibration</text>
</g>
<!-- Cofibration&#45;&gt;Core -->
<g id="edge3" class="edge">
<title>Cofibration&#45;&gt;Core</title>
<path fill="none" stroke="#666666" d="M655.01,-391.18C634.03,-403.59 605.55,-420.42 583.11,-433.69"/>
<polygon fill="#666666" stroke="#666666" points="581.04,-430.85 574.22,-438.95 584.61,-436.87 581.04,-430.85"/>
</g>
<!-- Domain -->
<g id="node5" class="node">
<title>Domain</title>
<path fill="#e3f2fd" stroke="black" d="M529.07,-391C529.07,-391 483.07,-391 483.07,-391 477.07,-391 471.07,-385 471.07,-379 471.07,-379 471.07,-367 471.07,-367 471.07,-361 477.07,-355 483.07,-355 483.07,-355 529.07,-355 529.07,-355 535.07,-355 541.07,-361 541.07,-367 541.07,-367 541.07,-379 541.07,-379 541.07,-385 535.07,-391 529.07,-391"/>
<text text-anchor="middle" x="506.07" y="-369.3" font-family="Helvetica,sans-Serif" font-size="14.00">Domain</text>
</g>
<!-- Domain&#45;&gt;Core -->
<g id="edge4" class="edge">
<title>Domain&#45;&gt;Core</title>
<path fill="none" stroke="#666666" d="M514.76,-391.18C520.31,-402.13 527.6,-416.54 533.85,-428.89"/>
<polygon fill="#666666" stroke="#666666" points="530.75,-430.51 538.39,-437.85 536.99,-427.34 530.75,-430.51"/>
</g>
<!-- TermBuilder -->
<g id="node6" class="node">
<title>TermBuilder</title>
<path fill="#e3f2fd" stroke="black" d="M835.57,-391C835.57,-391 760.57,-391 760.57,-391 754.57,-391 748.57,-385 748.57,-379 748.57,-379 748.57,-367 748.57,-367 748.57,-361 754.57,-355 760.57,-355 760.57,-355 835.57,-355 835.57,-355 841.57,-355 847.57,-361 847.57,-367 847.57,-367 847.57,-379 847.57,-379 847.57,-385 841.57,-391 835.57,-391"/>
<text text-anchor="middle" x="798.07" y="-369.3" font-family="Helvetica,sans-Serif" font-size="14.00">TermBuilder</text>
</g>
<!-- TermBuilder&#45;&gt;Core -->
<g id="edge5" class="edge">
<title>TermBuilder&#45;&gt;Core</title>
<path fill="none" stroke="#666666" d="M760.28,-391.09C753.6,-393.88 746.67,-396.63 740.07,-399 686.72,-418.15 623.34,-435.55 584.16,-445.71"/>
<polygon fill="#666666" stroke="#666666" points="583.07,-442.37 574.26,-448.25 584.82,-449.15 583.07,-442.37"/>
</g>
<!-- TypeAttrs -->
<g id="node7" class="node">
<title>TypeAttrs</title>
<path fill="#e3f2fd" stroke="black" d="M363.57,-391C363.57,-391 306.57,-391 306.57,-391 300.57,-391 294.57,-385 294.57,-379 294.57,-379 294.57,-367 294.57,-367 294.57,-361 300.57,-355 306.57,-355 306.57,-355 363.57,-355 363.57,-355 369.57,-355 375.57,-361 375.57,-367 375.57,-367 375.57,-379 375.57,-379 375.57,-385 369.57,-391 363.57,-391"/>
<text text-anchor="middle" x="335.07" y="-369.3" font-family="Helvetica,sans-Serif" font-size="14.00">TypeAttrs</text>
</g>
<!-- TypeAttrs&#45;&gt;Core -->
<g id="edge6" class="edge">
<title>TypeAttrs&#45;&gt;Core</title>
<path fill="none" stroke="#666666" d="M367.59,-391.03C373.36,-393.82 379.34,-396.59 385.07,-399 427.2,-416.73 477.1,-433.34 510.27,-443.8"/>
<polygon fill="#666666" stroke="#666666" points="509.42,-447.2 520,-446.84 511.5,-440.52 509.42,-447.2"/>
</g>
<!-- ExtType -->
<g id="node8" class="node">
<title>ExtType</title>
<path fill="#e3f2fd" stroke="black" d="M1118.57,-391C1118.57,-391 1071.57,-391 1071.57,-391 1065.57,-391 1059.57,-385 1059.57,-379 1059.57,-379 1059.57,-367 1059.57,-367 1059.57,-361 1065.57,-355 1071.57,-355 1071.57,-355 1118.57,-355 1118.57,-355 1124.57,-355 1130.57,-361 1130.57,-367 1130.57,-367 1130.57,-379 1130.57,-379 1130.57,-385 1124.57,-391 1118.57,-391"/>
<text text-anchor="middle" x="1095.07" y="-369.3" font-family="Helvetica,sans-Serif" font-size="14.00">ExtType</text>
</g>
<!-- ExtType&#45;&gt;Core -->
<g id="edge7" class="edge">
<title>ExtType&#45;&gt;Core</title>
<path fill="none" stroke="#666666" d="M1068.88,-391.15C1063.2,-394.22 1057.09,-397.05 1051.07,-399 963.92,-427.27 685.33,-446.59 584.2,-452.82"/>
<polygon fill="#666666" stroke="#666666" points="583.91,-449.33 574.14,-453.44 584.34,-456.32 583.91,-449.33"/>
</g>
<!-- SubType -->
<g id="node9" class="node">
<title>SubType</title>
<path fill="#e3f2fd" stroke="black" d="M1029.57,-391C1029.57,-391 978.57,-391 978.57,-391 972.57,-391 966.57,-385 966.57,-379 966.57,-379 966.57,-367 966.57,-367 966.57,-361 972.57,-355 978.57,-355 978.57,-355 1029.57,-355 1029.57,-355 1035.57,-355 1041.57,-361 1041.57,-367 1041.57,-367 1041.57,-379 1041.57,-379 1041.57,-385 1035.57,-391 1029.57,-391"/>
<text text-anchor="middle" x="1004.07" y="-369.3" font-family="Helvetica,sans-Serif" font-size="14.00">SubType</text>
</g>
<!-- SubType&#45;&gt;Core -->
<g id="edge8" class="edge">
<title>SubType&#45;&gt;Core</title>
<path fill="none" stroke="#666666" d="M976.58,-391.02C970.65,-394.09 964.29,-396.96 958.07,-399 825.33,-442.49 657.8,-452.23 584.4,-454.39"/>
<polygon fill="#666666" stroke="#666666" points="584.17,-450.89 574.26,-454.66 584.35,-457.89 584.17,-450.89"/>
</g>
<!-- Signature -->
<g id="node10" class="node">
<title>Signature</title>
<path fill="#e3f2fd" stroke="black" d="M936.57,-391C936.57,-391 877.57,-391 877.57,-391 871.57,-391 865.57,-385 865.57,-379 865.57,-379 865.57,-367 865.57,-367 865.57,-361 871.57,-355 877.57,-355 877.57,-355 936.57,-355 936.57,-355 942.57,-355 948.57,-361 948.57,-367 948.57,-367 948.57,-379 948.57,-379 948.57,-385 942.57,-391 936.57,-391"/>
<text text-anchor="middle" x="907.07" y="-369.3" font-family="Helvetica,sans-Serif" font-size="14.00">Signature</text>
</g>
<!-- Signature&#45;&gt;Core -->
<g id="edge9" class="edge">
<title>Signature&#45;&gt;Core</title>
<path fill="none" stroke="#666666" d="M876.45,-391.02C870.17,-394.01 863.51,-396.86 857.07,-399 761.61,-430.76 643.27,-445.79 584.22,-451.74"/>
<polygon fill="#666666" stroke="#666666" points="583.86,-448.26 574.25,-452.71 584.54,-455.22 583.86,-448.26"/>
</g>
<!-- GlobalEnv -->
<g id="node11" class="node">
<title>GlobalEnv</title>
<path fill="#fff3e0" stroke="black" d="M415.07,-308C415.07,-308 353.07,-308 353.07,-308 347.07,-308 341.07,-302 341.07,-296 341.07,-296 341.07,-284 341.07,-284 341.07,-278 347.07,-272 353.07,-272 353.07,-272 415.07,-272 415.07,-272 421.07,-272 427.07,-278 427.07,-284 427.07,-284 427.07,-296 427.07,-296 427.07,-302 421.07,-308 415.07,-308"/>
<text text-anchor="middle" x="384.07" y="-286.3" font-family="Helvetica,sans-Serif" font-size="14.00">GlobalEnv</text>
</g>
<!-- GlobalEnv&#45;&gt;Core -->
<g id="edge10" class="edge">
<title>GlobalEnv&#45;&gt;Core</title>
<path fill="none" stroke="#666666" d="M353.15,-308.1C346.38,-311.2 339.12,-314.07 332.07,-316 312.28,-321.42 253.94,-308.87 240.07,-324 217.54,-348.57 218.72,-373.4 240.07,-399 273.97,-439.65 434.96,-450.87 509.29,-453.9"/>
<polygon fill="#666666" stroke="#666666" points="509.48,-457.41 519.61,-454.3 509.75,-450.42 509.48,-457.41"/>
</g>
<!-- GlobalEnv&#45;&gt;Visitor -->
<g id="edge11" class="edge">
<title>GlobalEnv&#45;&gt;Visitor</title>
<path fill="none" stroke="#666666" d="M415.3,-308.05C422.28,-311.2 429.78,-314.1 437.07,-316 461.42,-322.37 527.73,-312.38 550.07,-324 559.78,-329.05 567.95,-337.7 574.26,-346.27"/>
<polygon fill="#666666" stroke="#666666" points="571.44,-348.36 579.93,-354.69 577.24,-344.44 571.44,-348.36"/>
</g>
<!-- Kan -->
<g id="node12" class="node">
<title>Kan</title>
<path fill="#fff3e0" stroke="black" d="M311.07,-308C311.07,-308 281.07,-308 281.07,-308 275.07,-308 269.07,-302 269.07,-296 269.07,-296 269.07,-284 269.07,-284 269.07,-278 275.07,-272 281.07,-272 281.07,-272 311.07,-272 311.07,-272 317.07,-272 323.07,-278 323.07,-284 323.07,-284 323.07,-296 323.07,-296 323.07,-302 317.07,-308 311.07,-308"/>
<text text-anchor="middle" x="296.07" y="-286.3" font-family="Helvetica,sans-Serif" font-size="14.00">Kan</text>
</g>
<!-- Kan&#45;&gt;Core -->
<g id="edge12" class="edge">
<title>Kan&#45;&gt;Core</title>
<path fill="none" stroke="#666666" d="M268.73,-294.98C251.32,-299.08 230.04,-307.37 219.07,-324 200.72,-351.83 197.57,-373.52 219.07,-399 255.89,-442.64 431.46,-452.28 509.51,-454.4"/>
<polygon fill="#666666" stroke="#666666" points="509.77,-457.91 519.86,-454.65 509.94,-450.91 509.77,-457.91"/>
</g>
<!-- Kan&#45;&gt;Quote -->
<g id="edge13" class="edge">
<title>Kan&#45;&gt;Quote</title>
<path fill="none" stroke="#666666" d="M317.24,-308.04C321.9,-311.11 326.98,-313.98 332.07,-316 354.21,-324.8 364.46,-312.05 385.07,-324 394.21,-329.3 401.99,-337.73 408.08,-346.05"/>
<polygon fill="#666666" stroke="#666666" points="405.31,-348.21 413.8,-354.55 411.12,-344.3 405.31,-348.21"/>
</g>
<!-- Kan&#45;&gt;Visitor -->
<g id="edge14" class="edge">
<title>Kan&#45;&gt;Visitor</title>
<path fill="none" stroke="#666666" d="M316.68,-308.24C321.47,-311.38 326.73,-314.22 332.07,-316 355.06,-323.67 528.38,-313.18 550.07,-324 559.87,-328.89 568.05,-337.5 574.35,-346.09"/>
<polygon fill="#666666" stroke="#666666" points="571.54,-348.18 580.01,-354.54 577.35,-344.29 571.54,-348.18"/>
</g>
<!-- Conversion -->
<g id="node13" class="node">
<title>Conversion</title>
<path fill="#fff3e0" stroke="black" d="M528.57,-308C528.57,-308 457.57,-308 457.57,-308 451.57,-308 445.57,-302 445.57,-296 445.57,-296 445.57,-284 445.57,-284 445.57,-278 451.57,-272 457.57,-272 457.57,-272 528.57,-272 528.57,-272 534.57,-272 540.57,-278 540.57,-284 540.57,-284 540.57,-296 540.57,-296 540.57,-302 534.57,-308 528.57,-308"/>
<text text-anchor="middle" x="493.07" y="-286.3" font-family="Helvetica,sans-Serif" font-size="14.00">Conversion</text>
</g>
<!-- Conversion&#45;&gt;Core -->
<g id="edge15" class="edge">
<title>Conversion&#45;&gt;Core</title>
<path fill="none" stroke="#666666" d="M459.71,-308.05C452.12,-311.25 443.96,-314.16 436.07,-316 417.11,-320.43 274.51,-309.93 261.07,-324 238.04,-348.1 239.88,-373.26 261.07,-399 292.19,-436.81 439.75,-449.46 509.88,-453.38"/>
<polygon fill="#666666" stroke="#666666" points="509.87,-456.88 520.05,-453.92 510.24,-449.89 509.87,-456.88"/>
</g>
<!-- Conversion&#45;&gt;Visitor -->
<g id="edge17" class="edge">
<title>Conversion&#45;&gt;Visitor</title>
<path fill="none" stroke="#666666" d="M527.28,-308.1C535.14,-312.75 543.2,-318.13 550.07,-324 557.74,-330.55 565.04,-338.77 571.2,-346.54"/>
<polygon fill="#666666" stroke="#666666" points="568.57,-348.85 577.41,-354.69 574.14,-344.61 568.57,-348.85"/>
</g>
<!-- Conversion&#45;&gt;Cofibration -->
<g id="edge16" class="edge">
<title>Conversion&#45;&gt;Cofibration</title>
<path fill="none" stroke="#666666" d="M527.42,-308.11C534.75,-311.17 542.55,-314.02 550.07,-316 583.77,-324.88 596.04,-310.26 628.07,-324 640.7,-329.42 652.58,-338.73 662.12,-347.72"/>
<polygon fill="#666666" stroke="#666666" points="659.67,-350.22 669.24,-354.77 664.6,-345.25 659.67,-350.22"/>
</g>
<!-- Splice -->
<g id="node14" class="node">
<title>Splice</title>
<path fill="#fff3e0" stroke="black" d="M605.07,-308C605.07,-308 571.07,-308 571.07,-308 565.07,-308 559.07,-302 559.07,-296 559.07,-296 559.07,-284 559.07,-284 559.07,-278 565.07,-272 571.07,-272 571.07,-272 605.07,-272 605.07,-272 611.07,-272 617.07,-278 617.07,-284 617.07,-284 617.07,-296 617.07,-296 617.07,-302 611.07,-308 605.07,-308"/>
<text text-anchor="middle" x="588.07" y="-286.3" font-family="Helvetica,sans-Serif" font-size="14.00">Splice</text>
</g>
<!-- Splice&#45;&gt;Core -->
<g id="edge18" class="edge">
<title>Splice&#45;&gt;Core</title>
<path fill="none" stroke="#666666" d="M566.62,-308.02C561.47,-311.26 555.79,-314.19 550.07,-316 535.86,-320.49 292.44,-313.31 282.07,-324 258.85,-347.92 261.08,-373.11 282.07,-399 310.32,-433.84 443.65,-447.86 509.75,-452.73"/>
<polygon fill="#666666" stroke="#666666" points="509.53,-456.23 519.75,-453.44 510.02,-449.24 509.53,-456.23"/>
</g>
<!-- Splice&#45;&gt;Visitor -->
<g id="edge20" class="edge">
<title>Splice&#45;&gt;Visitor</title>
<path fill="none" stroke="#666666" d="M588.28,-308.18C588.41,-318.81 588.58,-332.69 588.73,-344.8"/>
<polygon fill="#666666" stroke="#666666" points="585.23,-344.89 588.86,-354.85 592.23,-344.8 585.23,-344.89"/>
</g>
<!-- Splice&#45;&gt;Cofibration -->
<g id="edge19" class="edge">
<title>Splice&#45;&gt;Cofibration</title>
<path fill="none" stroke="#666666" d="M608.89,-308.05C615.08,-313.16 621.87,-318.79 628.07,-324 637.39,-331.84 647.52,-340.48 656.57,-348.25"/>
<polygon fill="#666666" stroke="#666666" points="654.33,-350.94 664.19,-354.8 658.89,-345.63 654.33,-350.94"/>
</g>
<!-- FHCom -->
<g id="node15" class="node">
<title>FHCom</title>
<path fill="#fce4ec" stroke="black" d="M160.57,-225C160.57,-225 117.57,-225 117.57,-225 111.57,-225 105.57,-219 105.57,-213 105.57,-213 105.57,-201 105.57,-201 105.57,-195 111.57,-189 117.57,-189 117.57,-189 160.57,-189 160.57,-189 166.57,-189 172.57,-195 172.57,-201 172.57,-201 172.57,-213 172.57,-213 172.57,-219 166.57,-225 160.57,-225"/>
<text text-anchor="middle" x="139.07" y="-203.3" font-family="Helvetica,sans-Serif" font-size="14.00">FHCom</text>
</g>
<!-- FHCom&#45;&gt;Core -->
<g id="edge21" class="edge">
<title>FHCom&#45;&gt;Core</title>
<path fill="none" stroke="#666666" d="M138.35,-225.13C137.78,-264.09 142.63,-359.05 200.07,-399 249.71,-433.53 430.44,-448.16 509.56,-453"/>
<polygon fill="#666666" stroke="#666666" points="509.83,-456.53 520.02,-453.62 510.24,-449.54 509.83,-456.53"/>
</g>
<!-- FHCom&#45;&gt;Visitor -->
<g id="edge23" class="edge">
<title>FHCom&#45;&gt;Visitor</title>
<path fill="none" stroke="#666666" d="M147.18,-225.41C160.05,-250.72 187.76,-296.73 227.07,-316 259.3,-331.81 517.85,-308.17 550.07,-324 560.04,-328.9 568.33,-337.68 574.66,-346.41"/>
<polygon fill="#666666" stroke="#666666" points="571.89,-348.57 580.33,-354.97 577.72,-344.7 571.89,-348.57"/>
</g>
<!-- FHCom&#45;&gt;Kan -->
<g id="edge22" class="edge">
<title>FHCom&#45;&gt;Kan</title>
<path fill="none" stroke="#666666" d="M172.36,-225.18C198.05,-238.43 233.53,-256.73 259.91,-270.34"/>
<polygon fill="#666666" stroke="#666666" points="258.34,-273.47 268.83,-274.95 261.55,-267.25 258.34,-273.47"/>
</g>
<!-- VType -->
<g id="node16" class="node">
<title>VType</title>
<path fill="#fce4ec" stroke="black" d="M222.07,-150C222.07,-150 188.07,-150 188.07,-150 182.07,-150 176.07,-144 176.07,-138 176.07,-138 176.07,-126 176.07,-126 176.07,-120 182.07,-114 188.07,-114 188.07,-114 222.07,-114 222.07,-114 228.07,-114 234.07,-120 234.07,-126 234.07,-126 234.07,-138 234.07,-138 234.07,-144 228.07,-150 222.07,-150"/>
<text text-anchor="middle" x="205.07" y="-128.3" font-family="Helvetica,sans-Serif" font-size="14.00">VType</text>
</g>
<!-- VType&#45;&gt;Core -->
<g id="edge24" class="edge">
<title>VType&#45;&gt;Core</title>
<path fill="none" stroke="#666666" d="M175.94,-147.1C172.99,-148.2 170,-149.2 167.07,-150 151.97,-154.13 107.49,-146.32 97.07,-158 49.11,-211.75 110.16,-368.06 146.07,-399 200.18,-445.63 421.11,-453.52 509.89,-454.79"/>
<polygon fill="#666666" stroke="#666666" points="509.99,-458.29 520.04,-454.91 510.08,-451.29 509.99,-458.29"/>
</g>
<!-- VType&#45;&gt;Quote -->
<g id="edge25" class="edge">
<title>VType&#45;&gt;Quote</title>
<path fill="none" stroke="#666666" d="M200.81,-150.27C192.92,-186.94 180.75,-272.77 227.07,-316 239.92,-327.99 369.44,-315.95 385.07,-324 394.71,-328.97 402.7,-337.6 408.82,-346.18"/>
<polygon fill="#666666" stroke="#666666" points="405.92,-348.15 414.32,-354.61 411.79,-344.32 405.92,-348.15"/>
</g>
<!-- VType&#45;&gt;Visitor -->
<g id="edge27" class="edge">
<title>VType&#45;&gt;Visitor</title>
<path fill="none" stroke="#666666" d="M208.71,-150.02C218.15,-193.43 243.64,-305.56 257.07,-316 282.78,-335.98 520.86,-309.6 550.07,-324 560.04,-328.91 568.32,-337.7 574.65,-346.42"/>
<polygon fill="#666666" stroke="#666666" points="571.88,-348.58 580.32,-354.98 577.72,-344.71 571.88,-348.58"/>
</g>
<!-- VType&#45;&gt;Kan -->
<g id="edge26" class="edge">
<title>VType&#45;&gt;Kan</title>
<path fill="none" stroke="#666666" d="M234.25,-142.77C241.89,-146.51 249.53,-151.5 255.07,-158 280.27,-187.61 290,-232.69 293.75,-261.49"/>
<polygon fill="#666666" stroke="#666666" points="290.3,-262.13 294.91,-271.67 297.25,-261.33 290.3,-262.13"/>
</g>
<!-- HIT -->
<g id="node17" class="node">
<title>HIT</title>
<path fill="#fce4ec" stroke="black" d="M146.07,-150C146.07,-150 116.07,-150 116.07,-150 110.07,-150 104.07,-144 104.07,-138 104.07,-138 104.07,-126 104.07,-126 104.07,-120 110.07,-114 116.07,-114 116.07,-114 146.07,-114 146.07,-114 152.07,-114 158.07,-120 158.07,-126 158.07,-126 158.07,-138 158.07,-138 158.07,-144 152.07,-150 146.07,-150"/>
<text text-anchor="middle" x="131.07" y="-128.3" font-family="Helvetica,sans-Serif" font-size="14.00">HIT</text>
</g>
<!-- HIT&#45;&gt;Core -->
<g id="edge28" class="edge">
<title>HIT&#45;&gt;Core</title>
<path fill="none" stroke="#666666" d="M104.01,-138.34C93.09,-141.96 81.56,-148 75.07,-158 16.51,-248.27 17.43,-327.77 98.07,-399 158.79,-452.64 413.15,-456.2 509.69,-455.55"/>
<polygon fill="#666666" stroke="#666666" points="509.89,-459.05 519.86,-455.47 509.83,-452.05 509.89,-459.05"/>
</g>
<!-- HIT&#45;&gt;FHCom -->
<g id="edge29" class="edge">
<title>HIT&#45;&gt;FHCom</title>
<path fill="none" stroke="#666666" d="M132.96,-150.3C133.89,-158.75 135.03,-169.13 136.07,-178.63"/>
<polygon fill="#666666" stroke="#666666" points="132.62,-179.27 137.19,-188.82 139.58,-178.5 132.62,-179.27"/>
</g>
<!-- RefineMonad -->
<g id="node18" class="node">
<title>RefineMonad</title>
<path fill="#f3e5f5" stroke="black" d="M760.57,-225C760.57,-225 677.57,-225 677.57,-225 671.57,-225 665.57,-219 665.57,-213 665.57,-213 665.57,-201 665.57,-201 665.57,-195 671.57,-189 677.57,-189 677.57,-189 760.57,-189 760.57,-189 766.57,-189 772.57,-195 772.57,-201 772.57,-201 772.57,-213 772.57,-213 772.57,-219 766.57,-225 760.57,-225"/>
<text text-anchor="middle" x="719.07" y="-203.3" font-family="Helvetica,sans-Serif" font-size="14.00">RefineMonad</text>
</g>
<!-- RefineMonad&#45;&gt;Core -->
<g id="edge30" class="edge">
<title>RefineMonad&#45;&gt;Core</title>
<path fill="none" stroke="#666666" d="M759.79,-225.06C767.15,-227.88 774.79,-230.65 782.07,-233 939.53,-283.85 1041.37,-193.48 1143.07,-324 1163.56,-350.29 1165.51,-374.35 1143.07,-399 1105.38,-440.4 708.91,-451.78 584.32,-454.35"/>
<polygon fill="#666666" stroke="#666666" points="584.06,-450.85 574.14,-454.55 584.2,-457.85 584.06,-450.85"/>
</g>
<!-- RefineMonad&#45;&gt;Cofibration -->
<g id="edge31" class="edge">
<title>RefineMonad&#45;&gt;Cofibration</title>
<path fill="none" stroke="#666666" d="M715.39,-225.24C709.31,-253.74 697.11,-310.88 689.86,-344.84"/>
<polygon fill="#666666" stroke="#666666" points="686.36,-344.48 687.7,-354.99 693.21,-345.94 686.36,-344.48"/>
</g>
<!-- RefineMonad&#45;&gt;Conversion -->
<g id="edge32" class="edge">
<title>RefineMonad&#45;&gt;Conversion</title>
<path fill="none" stroke="#666666" d="M681.35,-225.1C673.16,-228.21 664.44,-231.07 656.07,-233 610.03,-243.61 593.81,-223.14 550.07,-241 537.22,-246.25 525.12,-255.53 515.41,-264.54"/>
<polygon fill="#666666" stroke="#666666" points="512.86,-262.14 508.16,-271.63 517.76,-267.14 512.86,-262.14"/>
</g>
<!-- Semantics -->
<g id="node19" class="node">
<title>Semantics</title>
<path fill="#f3e5f5" stroke="black" d="M867.57,-225C867.57,-225 802.57,-225 802.57,-225 796.57,-225 790.57,-219 790.57,-213 790.57,-213 790.57,-201 790.57,-201 790.57,-195 796.57,-189 802.57,-189 802.57,-189 867.57,-189 867.57,-189 873.57,-189 879.57,-195 879.57,-201 879.57,-201 879.57,-213 879.57,-213 879.57,-219 873.57,-225 867.57,-225"/>
<text text-anchor="middle" x="835.07" y="-203.3" font-family="Helvetica,sans-Serif" font-size="14.00">Semantics</text>
</g>
<!-- Semantics&#45;&gt;Core -->
<g id="edge33" class="edge">
<title>Semantics&#45;&gt;Core</title>
<path fill="none" stroke="#666666" d="M867.22,-225.12C874.25,-228.23 881.77,-231.08 889.07,-233 931.76,-244.22 945.4,-229.67 988.07,-241 1072.04,-263.3 1118.46,-250.67 1165.07,-324 1182.95,-352.13 1187.55,-374.39 1165.07,-399 1125.8,-441.99 712.18,-452.31 584.44,-454.48"/>
<polygon fill="#666666" stroke="#666666" points="584.3,-450.98 574.36,-454.64 584.41,-457.98 584.3,-450.98"/>
</g>
<!-- Semantics&#45;&gt;Visitor -->
<g id="edge37" class="edge">
<title>Semantics&#45;&gt;Visitor</title>
<path fill="none" stroke="#666666" d="M802.55,-225.03C795.9,-228.03 788.86,-230.86 782.07,-233 761.86,-239.36 753.14,-229.94 735.07,-241 699.58,-262.71 714.66,-294.47 679.07,-316 659.81,-327.65 648.63,-312.87 629.07,-324 619.59,-329.39 611.39,-337.95 604.93,-346.35"/>
<polygon fill="#666666" stroke="#666666" points="602.01,-344.41 599.06,-354.58 607.71,-348.48 602.01,-344.41"/>
</g>
<!-- Semantics&#45;&gt;Cofibration -->
<g id="edge34" class="edge">
<title>Semantics&#45;&gt;Cofibration</title>
<path fill="none" stroke="#666666" d="M819.19,-225.24C792.28,-254.48 737.59,-313.87 706.68,-347.44"/>
<polygon fill="#666666" stroke="#666666" points="703.93,-345.26 699.73,-354.99 709.08,-350 703.93,-345.26"/>
</g>
<!-- Semantics&#45;&gt;TermBuilder -->
<g id="edge36" class="edge">
<title>Semantics&#45;&gt;TermBuilder</title>
<path fill="none" stroke="#666666" d="M831.29,-225.22C826.61,-246.54 818.34,-283.97 811.07,-316 808.92,-325.48 806.52,-335.84 804.38,-345.05"/>
<polygon fill="#666666" stroke="#666666" points="800.96,-344.32 802.09,-354.85 807.77,-345.91 800.96,-344.32"/>
</g>
<!-- Semantics&#45;&gt;Conversion -->
<g id="edge35" class="edge">
<title>Semantics&#45;&gt;Conversion</title>
<path fill="none" stroke="#666666" d="M804.17,-225.13C797.1,-228.31 789.48,-231.2 782.07,-233 731.93,-245.14 598.22,-222.48 550.07,-241 536.92,-246.06 524.64,-255.5 514.88,-264.68"/>
<polygon fill="#666666" stroke="#666666" points="512.24,-262.36 507.61,-271.89 517.18,-267.33 512.24,-262.36"/>
</g>
<!-- Tactic -->
<g id="node20" class="node">
<title>Tactic</title>
<path fill="#f3e5f5" stroke="black" d="M940.57,-225C940.57,-225 909.57,-225 909.57,-225 903.57,-225 897.57,-219 897.57,-213 897.57,-213 897.57,-201 897.57,-201 897.57,-195 903.57,-189 909.57,-189 909.57,-189 940.57,-189 940.57,-189 946.57,-189 952.57,-195 952.57,-201 952.57,-201 952.57,-213 952.57,-213 952.57,-219 946.57,-225 940.57,-225"/>
<text text-anchor="middle" x="925.07" y="-203.3" font-family="Helvetica,sans-Serif" font-size="14.00">Tactic</text>
</g>
<!-- Tactic&#45;&gt;Core -->
<g id="edge38" class="edge">
<title>Tactic&#45;&gt;Core</title>
<path fill="none" stroke="#666666" d="M948.23,-225.12C953.53,-228.27 959.3,-231.14 965.07,-233 1016.78,-249.68 1036.64,-220.76 1087.07,-241 1163.98,-271.86 1242.05,-337.9 1186.07,-399 1145.27,-443.53 714.89,-452.8 584.38,-454.6"/>
<polygon fill="#666666" stroke="#666666" points="584.05,-451.1 574.09,-454.73 584.14,-458.1 584.05,-451.1"/>
</g>
<!-- Tactic&#45;&gt;Cofibration -->
<g id="edge39" class="edge">
<title>Tactic&#45;&gt;Cofibration</title>
<path fill="none" stroke="#666666" d="M908.01,-225.34C882.99,-249.69 833.76,-293.54 783.07,-316 765.3,-323.87 757.6,-315.61 740.07,-324 727.98,-329.79 716.41,-338.87 706.96,-347.58"/>
<polygon fill="#666666" stroke="#666666" points="704.32,-345.27 699.56,-354.73 709.18,-350.3 704.32,-345.27"/>
</g>
<!-- Tactic&#45;&gt;Splice -->
<g id="edge40" class="edge">
<title>Tactic&#45;&gt;Splice</title>
<path fill="none" stroke="#666666" d="M903.46,-225.16C898.9,-228.15 893.98,-230.95 889.07,-233 800.22,-270.09 686.42,-282.73 627.45,-286.95"/>
<polygon fill="#666666" stroke="#666666" points="627.18,-283.46 617.44,-287.62 627.65,-290.44 627.18,-283.46"/>
</g>
<!-- Unify -->
<g id="node21" class="node">
<title>Unify</title>
<path fill="#f3e5f5" stroke="black" d="M635.07,-225C635.07,-225 605.07,-225 605.07,-225 599.07,-225 593.07,-219 593.07,-213 593.07,-213 593.07,-201 593.07,-201 593.07,-195 599.07,-189 605.07,-189 605.07,-189 635.07,-189 635.07,-189 641.07,-189 647.07,-195 647.07,-201 647.07,-201 647.07,-213 647.07,-213 647.07,-219 641.07,-225 635.07,-225"/>
<text text-anchor="middle" x="620.07" y="-203.3" font-family="Helvetica,sans-Serif" font-size="14.00">Unify</text>
</g>
<!-- Unify&#45;&gt;Visitor -->
<g id="edge42" class="edge">
<title>Unify&#45;&gt;Visitor</title>
<path fill="none" stroke="#666666" d="M646.99,-225.29C651.88,-229.78 656.31,-235.05 659.07,-241 673.09,-271.24 679.38,-289.57 659.07,-316 650.66,-326.94 640.7,-316.57 629.07,-324 620.11,-329.72 612.15,-338.09 605.74,-346.25"/>
<polygon fill="#666666" stroke="#666666" points="602.74,-344.42 599.64,-354.55 608.38,-348.56 602.74,-344.42"/>
</g>
<!-- Unify&#45;&gt;GlobalEnv -->
<g id="edge41" class="edge">
<title>Unify&#45;&gt;GlobalEnv</title>
<path fill="none" stroke="#666666" d="M592.81,-215.45C571.52,-221.01 541.1,-228.43 514.07,-233 480.14,-238.74 468.49,-226.98 437.07,-241 425.02,-246.38 413.85,-255.56 404.89,-264.46"/>
<polygon fill="#666666" stroke="#666666" points="402.28,-262.13 397.92,-271.78 407.35,-266.95 402.28,-262.13"/>
</g>
<!-- Datatype -->
<g id="node22" class="node">
<title>Datatype</title>
<path fill="#e1f5fe" stroke="black" d="M1047.07,-225C1047.07,-225 991.07,-225 991.07,-225 985.07,-225 979.07,-219 979.07,-213 979.07,-213 979.07,-201 979.07,-201 979.07,-195 985.07,-189 991.07,-189 991.07,-189 1047.07,-189 1047.07,-189 1053.07,-189 1059.07,-195 1059.07,-201 1059.07,-201 1059.07,-213 1059.07,-213 1059.07,-219 1053.07,-225 1047.07,-225"/>
<text text-anchor="middle" x="1019.07" y="-203.3" font-family="Helvetica,sans-Serif" font-size="14.00">Datatype</text>
</g>
<!-- Datatype&#45;&gt;Core -->
<g id="edge43" class="edge">
<title>Datatype&#45;&gt;Core</title>
<path fill="none" stroke="#666666" d="M1059.13,-210.29C1087.53,-213.62 1125.37,-221.67 1153.07,-241 1214.16,-283.64 1259.48,-344.14 1209.07,-399 1166.61,-445.2 718.01,-453.32 584.41,-454.72"/>
<polygon fill="#666666" stroke="#666666" points="584.22,-451.22 574.26,-454.82 584.29,-458.22 584.22,-451.22"/>
</g>
<!-- Datatype&#45;&gt;GlobalEnv -->
<g id="edge44" class="edge">
<title>Datatype&#45;&gt;GlobalEnv</title>
<path fill="none" stroke="#666666" d="M987.87,-225.11C980.59,-228.34 972.72,-231.25 965.07,-233 936.47,-239.53 464.36,-230.24 437.07,-241 424.62,-245.91 413.25,-255.2 404.27,-264.3"/>
<polygon fill="#666666" stroke="#666666" points="401.54,-262.1 397.31,-271.81 406.68,-266.86 401.54,-262.1"/>
</g>
<!-- Elaborate -->
<g id="node23" class="node">
<title>Elaborate</title>
<path fill="#e1f5fe" stroke="black" d="M1048.57,-150C1048.57,-150 989.57,-150 989.57,-150 983.57,-150 977.57,-144 977.57,-138 977.57,-138 977.57,-126 977.57,-126 977.57,-120 983.57,-114 989.57,-114 989.57,-114 1048.57,-114 1048.57,-114 1054.57,-114 1060.57,-120 1060.57,-126 1060.57,-126 1060.57,-138 1060.57,-138 1060.57,-144 1054.57,-150 1048.57,-150"/>
<text text-anchor="middle" x="1019.07" y="-128.3" font-family="Helvetica,sans-Serif" font-size="14.00">Elaborate</text>
</g>
<!-- Elaborate&#45;&gt;Core -->
<g id="edge45" class="edge">
<title>Elaborate&#45;&gt;Core</title>
<path fill="none" stroke="#666666" d="M1060.86,-148.05C1101.9,-164.82 1163.63,-195.68 1201.07,-241 1246.7,-296.24 1281.63,-346.32 1233.07,-399 1188.87,-446.95 721.17,-453.84 584.42,-454.83"/>
<polygon fill="#666666" stroke="#666666" points="584.4,-451.33 574.42,-454.9 584.44,-458.33 584.4,-451.33"/>
</g>
<!-- Elaborate&#45;&gt;Quote -->
<g id="edge48" class="edge">
<title>Elaborate&#45;&gt;Quote</title>
<path fill="none" stroke="#666666" d="M977.4,-133.85C870.61,-136.22 594.55,-143.72 581.07,-158 558.18,-182.23 559.52,-207.57 581.07,-233 595.05,-249.5 615.09,-224.5 629.07,-241 650.61,-266.43 652.07,-291.87 629.07,-316 616.25,-329.45 478.65,-315.62 462.07,-324 452.29,-328.94 444.12,-337.57 437.82,-346.15"/>
<polygon fill="#666666" stroke="#666666" points="434.82,-344.34 432.15,-354.59 440.63,-348.24 434.82,-344.34"/>
</g>
<!-- Elaborate&#45;&gt;GlobalEnv -->
<g id="edge46" class="edge">
<title>Elaborate&#45;&gt;GlobalEnv</title>
<path fill="none" stroke="#666666" d="M977.39,-133.87C870.21,-136.31 590.6,-143.96 551.07,-158 490.57,-179.49 435.06,-232.41 405.78,-264.02"/>
<polygon fill="#666666" stroke="#666666" points="403.05,-261.82 398.91,-271.57 408.23,-266.53 403.05,-261.82"/>
</g>
<!-- Elaborate&#45;&gt;Unify -->
<g id="edge47" class="edge">
<title>Elaborate&#45;&gt;Unify</title>
<path fill="none" stroke="#666666" d="M977.33,-133.97C888.12,-136.31 684.7,-143.21 657.07,-158 647.71,-163.01 639.97,-171.53 634.04,-180.02"/>
<polygon fill="#666666" stroke="#666666" points="630.94,-178.38 628.52,-188.7 636.84,-182.14 630.94,-178.38"/>
</g>
<!-- Elaborate&#45;&gt;Datatype -->
<g id="edge49" class="edge">
<title>Elaborate&#45;&gt;Datatype</title>
<path fill="none" stroke="#666666" d="M1019.07,-150.3C1019.07,-158.75 1019.07,-169.13 1019.07,-178.63"/>
<polygon fill="#666666" stroke="#666666" points="1015.57,-178.82 1019.07,-188.82 1022.57,-178.82 1015.57,-178.82"/>
</g>
<!-- Module -->
<g id="node24" class="node">
<title>Module</title>
<path fill="#e1f5fe" stroke="black" d="M1032.57,-75C1032.57,-75 989.57,-75 989.57,-75 983.57,-75 977.57,-69 977.57,-63 977.57,-63 977.57,-51 977.57,-51 977.57,-45 983.57,-39 989.57,-39 989.57,-39 1032.57,-39 1032.57,-39 1038.57,-39 1044.57,-45 1044.57,-51 1044.57,-51 1044.57,-63 1044.57,-63 1044.57,-69 1038.57,-75 1032.57,-75"/>
<text text-anchor="middle" x="1011.07" y="-53.3" font-family="Helvetica,sans-Serif" font-size="14.00">Module</text>
</g>
<!-- Module&#45;&gt;Core -->
<g id="edge50" class="edge">
<title>Module&#45;&gt;Core</title>
<path fill="none" stroke="#666666" d="M977.55,-58.1C816.92,-58.66 132.08,-62.27 92.07,-83 31.45,-114.4 0.07,-137.73 0.07,-206 0.07,-206 0.07,-206 0.07,-291 0.07,-342.03 -1.03,-367.43 39.07,-399 75.96,-428.05 399.15,-447.35 509.97,-453.16"/>
<polygon fill="#666666" stroke="#666666" points="509.84,-456.66 520.01,-453.68 510.21,-449.66 509.84,-456.66"/>
</g>
<!-- Module&#45;&gt;GlobalEnv -->
<g id="edge51" class="edge">
<title>Module&#45;&gt;GlobalEnv</title>
<path fill="none" stroke="#666666" d="M977.44,-59.52C866.94,-65.14 517.26,-88.22 433.07,-158 401.93,-183.81 390.57,-231.48 386.43,-261.65"/>
<polygon fill="#666666" stroke="#666666" points="382.92,-261.55 385.21,-271.9 389.87,-262.38 382.92,-261.55"/>
</g>
<!-- Module&#45;&gt;Elaborate -->
<g id="edge52" class="edge">
<title>Module&#45;&gt;Elaborate</title>
<path fill="none" stroke="#666666" d="M1012.96,-75.3C1013.89,-83.75 1015.03,-94.13 1016.07,-103.63"/>
<polygon fill="#666666" stroke="#666666" points="1012.62,-104.27 1017.19,-113.82 1019.58,-103.5 1012.62,-104.27"/>
</g>
</g>
</svg>
